<svg width="132" height="105" viewBox="0 0 132 105" fill="none" xmlns="http://www.w3.org/2000/svg">
<rect x="57" y="6" width="25" height="4" rx="2" fill="#367D3F"/>
<path d="M63 12H77L75.25 16H64.75L63 12Z" fill="#98CE45"/>
<path d="M43 24C48.5 19.8516 54 17.5 69.5 17.5C83.5 17.5 88.3048 21.5 92 24C102.343 30.9975 106.5 49.1484 106.5 49.1484H103.5C103.5 49.1484 98.8967 36.1373 92 30.5C81.5684 21.9733 63 22.6848 53 29.5C42.0577 36.9574 43 49.1484 43 49.1484H30.5C30.5 49.1484 32.8097 31.686 43 24Z" fill="#35813C"/>
<path d="M31.5 6.05272C35.557 5.64704 35.6636 7.67245 39.5 9.05274C44.108 10.7106 51.5 13.5527 51.5 13.5527C51.5 13.5527 44.5 15.3027 41.5 14.5527C35.3643 13.0188 33.1758 11.7335 28.5 10.5527C23.921 9.39633 18 9.05269 18 9.05269C18 9.05269 26.5 6.5527 31.5 6.05272Z" fill="#94CB45"/>
<path d="M11 14.0185C15.057 13.6128 16.1636 17.1381 20 18.5184C24.608 20.1763 34.5 19.5186 34.5 19.5186C34.5 19.5186 21.8712 23.1667 19 22.0183C14 20.0186 13.5 20.0186 11 18.5183C7.04743 16.1464 2 16.071 2 16.071C2 16.071 6 14.5185 11 14.0185Z" fill="#98CE45"/>
<path d="M14 28.4862C16.4081 27.6835 16.9744 28.7407 19.5 28.4862C22.2816 28.2059 26.5 26.9862 26.5 26.9862C26.5 26.9862 22.7237 29.541 20 30.4862C18.4788 31.0141 17.5 31.9862 15 31.4862C12.1279 30.9118 8.5 31.4862 8.5 31.4862C8.5 31.4862 11.9963 29.1541 14 28.4862Z" fill="#94CB45"/>
<path d="M93.1289 39.6266L95.6056 39.2862C95.6056 39.2862 96.7043 41.2446 97.0728 42.6175C97.3765 43.749 97.9766 45.5215 97.9766 45.5215L94.5092 45.998C94.5092 45.998 94.4045 44.1575 94.1008 43.0259C93.7323 41.653 93.1289 39.6266 93.1289 39.6266Z" fill="#A2CA5F"/>
<path d="M89.0002 31.6142C89.0002 31.6142 89.8567 31.4106 91.1177 32.3325C92.2323 33.1474 92.2446 33.1871 92.8761 34.1098C93.8249 35.4963 94.2752 36.9457 94.2752 36.9457L92.2938 37.218C92.2938 37.218 92.1576 36.2273 91.4581 34.8093C90.8291 33.5345 89.0002 31.6142 89.0002 31.6142Z" fill="#A2CA5F"/>
<path d="M22 54C22 52.8954 22.8954 52 24 52H38.5L37.5 54L36.5 56H24C22.8954 56 22 55.1046 22 54Z" fill="#A2CA5F"/>
<path d="M114 54C114 52.8954 113.105 52 112 52H102.5L103.5 54L104.375 56H112C113.105 56 114 55.1046 114 54Z" fill="#A2CA5F"/>
<path d="M59 52H82L81 54L80 56H61L59 52Z" fill="#A2CA5F"/>
<circle cx="48.5" cy="59.5" r="7" stroke="#A2CA5F" stroke-width="5"/>
<circle cx="92.5" cy="59.5" r="7" stroke="#A2CA5F" stroke-width="5"/>
<path d="M33 70C33 68.8954 33.8954 68 35 68H38.5C38.5 68 39.3551 68.98 40 69.5C40.548 69.942 40.8935 70.1426 41.5 70.5C42.7809 71.2548 44.2357 71.6471 45.6935 71.9387L46 72H35C33.8954 72 33 71.1046 33 70Z" fill="#AAABAC"/>
<path d="M77 70C77 68.8954 77.8954 68 79 68H82.5C82.5 68 83.3551 68.98 84 69.5C84.548 69.942 84.8935 70.1426 85.5 70.5C86.7809 71.2548 88.2357 71.6471 89.6935 71.9387L90 72H79C77.8954 72 77 71.1046 77 70Z" fill="#AAABAC"/>
<path d="M12 86.2C11.264 86.2 10.576 86.392 9.936 86.776C9.312 87.16 8.76 87.672 8.28 88.312C7.816 88.952 7.448 89.688 7.176 90.52C6.92 91.352 6.792 92.208 6.792 93.088C6.792 94.288 7.04 95.264 7.536 96.016C8.048 96.752 8.872 97.12 10.008 97.12C10.744 97.12 11.424 96.928 12.048 96.544C12.688 96.16 13.24 95.648 13.704 95.008C14.184 94.368 14.552 93.64 14.808 92.824C15.08 91.992 15.216 91.128 15.216 90.232C15.216 89.032 14.96 88.064 14.448 87.328C13.952 86.576 13.136 86.2 12 86.2ZM9.624 100.336C8.648 100.336 7.752 100.176 6.936 99.856C6.12 99.536 5.416 99.08 4.824 98.488C4.232 97.88 3.768 97.144 3.432 96.28C3.112 95.416 2.952 94.44 2.952 93.352C2.952 92.104 3.168 90.864 3.6 89.632C4.032 88.4 4.648 87.296 5.448 86.32C6.264 85.328 7.256 84.528 8.424 83.92C9.592 83.296 10.912 82.984 12.384 82.984C13.36 82.984 14.256 83.144 15.072 83.464C15.888 83.784 16.592 84.248 17.184 84.856C17.776 85.448 18.232 86.176 18.552 87.04C18.888 87.904 19.056 88.88 19.056 89.968C19.056 91.216 18.84 92.464 18.408 93.712C17.992 94.944 17.376 96.056 16.56 97.048C15.76 98.024 14.776 98.816 13.608 99.424C12.44 100.032 11.112 100.336 9.624 100.336ZM20.5641 94.96C20.5641 93.872 20.7401 92.848 21.0921 91.888C21.4441 90.928 21.9481 90.088 22.6041 89.368C23.2601 88.648 24.0521 88.08 24.9801 87.664C25.9241 87.248 26.9721 87.04 28.1241 87.04C28.8441 87.04 29.4841 87.112 30.0441 87.256C30.6201 87.384 31.1401 87.56 31.6041 87.784L30.3801 90.568C30.0601 90.44 29.7241 90.328 29.3721 90.232C29.0361 90.12 28.6201 90.064 28.1241 90.064C26.9241 90.064 25.9801 90.472 25.2921 91.288C24.6041 92.088 24.2601 93.184 24.2601 94.576C24.2601 95.392 24.4361 96.056 24.7881 96.568C25.1401 97.064 25.7881 97.312 26.7321 97.312C27.1961 97.312 27.6441 97.264 28.0761 97.168C28.5081 97.072 28.8921 96.952 29.2281 96.808L29.4921 99.664C29.0441 99.84 28.5481 99.992 28.0041 100.12C27.4761 100.264 26.8281 100.336 26.0601 100.336C25.0681 100.336 24.2281 100.192 23.5401 99.904C22.8521 99.616 22.2841 99.232 21.8361 98.752C21.3881 98.256 21.0601 97.68 20.8521 97.024C20.6601 96.368 20.5641 95.68 20.5641 94.96ZM31.4859 95.056C31.4859 94.032 31.6619 93.04 32.0139 92.08C32.3819 91.12 32.8939 90.272 33.5499 89.536C34.2059 88.784 34.9979 88.184 35.9259 87.736C36.8699 87.272 37.9099 87.04 39.0459 87.04C39.6059 87.04 40.1259 87.12 40.6059 87.28C41.0859 87.44 41.5019 87.672 41.8539 87.976C42.2219 88.28 42.5019 88.656 42.6939 89.104C42.9019 89.536 43.0059 90.032 43.0059 90.592C43.0059 91.488 42.8059 92.248 42.4059 92.872C42.0059 93.496 41.4459 94.008 40.7259 94.408C40.0219 94.792 39.1819 95.072 38.2059 95.248C37.2299 95.424 36.1659 95.512 35.0139 95.512C35.1259 96.184 35.3659 96.664 35.7339 96.952C36.1179 97.224 36.7179 97.36 37.5339 97.36C38.0459 97.36 38.5659 97.32 39.0939 97.24C39.6219 97.144 40.1179 97.008 40.5819 96.832L40.8459 99.64C40.3979 99.816 39.8219 99.976 39.1179 100.12C38.4299 100.264 37.6779 100.336 36.8619 100.336C35.8699 100.336 35.0299 100.2 34.3419 99.928C33.6699 99.64 33.1179 99.256 32.6859 98.776C32.2699 98.296 31.9659 97.736 31.7739 97.096C31.5819 96.456 31.4859 95.776 31.4859 95.056ZM38.4699 89.872C37.6539 89.872 36.9339 90.168 36.3099 90.76C35.7019 91.336 35.3019 92.104 35.1099 93.064C36.1019 93.032 36.9019 92.952 37.5099 92.824C38.1179 92.68 38.5899 92.512 38.9259 92.32C39.2619 92.128 39.4859 91.92 39.5979 91.696C39.7099 91.472 39.7659 91.248 39.7659 91.024C39.7659 90.256 39.3339 89.872 38.4699 89.872ZM55.3245 94.552C55.1005 95.464 55.0365 96.384 55.1325 97.312C55.2285 98.224 55.4125 99.04 55.6845 99.76L52.4925 100.216C52.3965 100.024 52.3085 99.84 52.2285 99.664C52.1485 99.488 52.0685 99.288 51.9885 99.064C51.5405 99.432 51.0445 99.736 50.5005 99.976C49.9565 100.216 49.3485 100.336 48.6765 100.336C47.8765 100.336 47.1885 100.2 46.6125 99.928C46.0525 99.64 45.5885 99.264 45.2205 98.8C44.8685 98.32 44.6125 97.768 44.4525 97.144C44.2925 96.504 44.2125 95.824 44.2125 95.104C44.2125 94 44.4045 92.96 44.7885 91.984C45.1885 91.008 45.7325 90.16 46.4205 89.44C47.1245 88.704 47.9485 88.128 48.8925 87.712C49.8365 87.296 50.8605 87.088 51.9645 87.088C52.1085 87.088 52.3565 87.096 52.7085 87.112C53.0765 87.128 53.4925 87.168 53.9565 87.232C54.4205 87.28 54.9085 87.368 55.4205 87.496C55.9325 87.624 56.4205 87.8 56.8845 88.024L55.3245 94.552ZM52.8285 90.136C52.6205 90.104 52.4285 90.08 52.2525 90.064C52.0925 90.048 51.8925 90.04 51.6525 90.04C51.1085 90.04 50.5965 90.176 50.1165 90.448C49.6525 90.72 49.2445 91.08 48.8925 91.528C48.5405 91.96 48.2605 92.464 48.0525 93.04C47.8605 93.616 47.7645 94.216 47.7645 94.84C47.7645 95.608 47.8925 96.216 48.1485 96.664C48.4045 97.112 48.8765 97.336 49.5645 97.336C49.9325 97.336 50.2605 97.264 50.5485 97.12C50.8525 96.976 51.1725 96.736 51.5085 96.4C51.5405 96 51.5885 95.584 51.6525 95.152C51.7325 94.704 51.8125 94.296 51.8925 93.928L52.8285 90.136ZM60.5059 87.952C60.7779 87.872 61.0739 87.784 61.3939 87.688C61.7299 87.576 62.0979 87.48 62.4979 87.4C62.9139 87.304 63.3699 87.232 63.8659 87.184C64.3779 87.12 64.9539 87.088 65.5939 87.088C67.4819 87.088 68.7779 87.632 69.4819 88.72C70.1859 89.808 70.3059 91.296 69.8419 93.184L68.2099 100H64.6339L66.2179 93.328C66.3139 92.912 66.3859 92.512 66.4339 92.128C66.4979 91.728 66.4979 91.384 66.4339 91.096C66.3699 90.792 66.2179 90.552 65.9779 90.376C65.7539 90.184 65.4019 90.088 64.9219 90.088C64.4579 90.088 63.9859 90.136 63.5059 90.232L61.1779 100H57.6019L60.5059 87.952ZM79.9071 83.176C80.9151 83.176 81.8191 83.288 82.6191 83.512C83.4351 83.72 84.1231 84.032 84.6831 84.448C85.2431 84.848 85.6751 85.344 85.9791 85.936C86.2831 86.528 86.4351 87.192 86.4351 87.928C86.4351 89.128 86.2031 90.144 85.7391 90.976C85.2751 91.808 84.6351 92.48 83.8191 92.992C83.0031 93.504 82.0431 93.872 80.9391 94.096C79.8351 94.32 78.6351 94.432 77.3391 94.432H76.4031L75.0591 100H71.3391L75.2511 83.608C76.1151 83.448 76.9311 83.336 77.6991 83.272C78.4831 83.208 79.2191 83.176 79.9071 83.176ZM79.5951 86.32C79.3231 86.32 79.0911 86.328 78.8991 86.344C78.7071 86.36 78.5151 86.376 78.3231 86.392L77.1711 91.288H78.1071C78.7791 91.288 79.3871 91.24 79.9311 91.144C80.4911 91.032 80.9631 90.856 81.3471 90.616C81.7471 90.376 82.0511 90.072 82.2591 89.704C82.4831 89.32 82.5951 88.856 82.5951 88.312C82.5951 87.592 82.3311 87.08 81.8031 86.776C81.2911 86.472 80.5551 86.32 79.5951 86.32ZM90.0992 100H86.5472L89.5472 87.376H93.1232L90.0992 100ZM91.8272 85.84C91.3312 85.84 90.8832 85.696 90.4832 85.408C90.0832 85.104 89.8832 84.648 89.8832 84.04C89.8832 83.704 89.9472 83.392 90.0752 83.104C90.2192 82.8 90.4032 82.544 90.6272 82.336C90.8512 82.112 91.1072 81.936 91.3952 81.808C91.6992 81.68 92.0192 81.616 92.3552 81.616C92.8512 81.616 93.2992 81.768 93.6992 82.072C94.0992 82.36 94.2992 82.808 94.2992 83.416C94.2992 83.752 94.2272 84.072 94.0832 84.376C93.9552 84.664 93.7792 84.92 93.5552 85.144C93.3312 85.352 93.0672 85.52 92.7632 85.648C92.4752 85.776 92.1632 85.84 91.8272 85.84ZM105.632 89.752C105.264 90.072 104.784 90.512 104.192 91.072C103.6 91.616 102.96 92.224 102.272 92.896C101.584 93.552 100.88 94.248 100.16 94.984C99.4401 95.704 98.7681 96.4 98.1441 97.072H104L103.28 100H93.1041L93.6081 97.912C94.0721 97.336 94.6001 96.712 95.1921 96.04C95.8001 95.368 96.4241 94.688 97.0641 94C97.7201 93.312 98.3681 92.656 99.0081 92.032C99.6641 91.392 100.272 90.816 100.832 90.304H95.6961L96.4161 87.376H106.208L105.632 89.752ZM118.265 89.752C117.897 90.072 117.417 90.512 116.825 91.072C116.233 91.616 115.593 92.224 114.905 92.896C114.217 93.552 113.513 94.248 112.793 94.984C112.073 95.704 111.401 96.4 110.777 97.072H116.633L115.913 100H105.737L106.241 97.912C106.705 97.336 107.233 96.712 107.825 96.04C108.433 95.368 109.057 94.688 109.697 94C110.353 93.312 111.001 92.656 111.641 92.032C112.297 91.392 112.905 90.816 113.465 90.304H108.329L109.049 87.376H118.841L118.265 89.752ZM130.442 94.552C130.218 95.464 130.154 96.384 130.25 97.312C130.346 98.224 130.53 99.04 130.802 99.76L127.61 100.216C127.514 100.024 127.426 99.84 127.346 99.664C127.266 99.488 127.186 99.288 127.106 99.064C126.658 99.432 126.162 99.736 125.618 99.976C125.074 100.216 124.466 100.336 123.794 100.336C122.994 100.336 122.306 100.2 121.73 99.928C121.17 99.64 120.706 99.264 120.338 98.8C119.986 98.32 119.73 97.768 119.57 97.144C119.41 96.504 119.33 95.824 119.33 95.104C119.33 94 119.522 92.96 119.906 91.984C120.306 91.008 120.85 90.16 121.538 89.44C122.242 88.704 123.066 88.128 124.01 87.712C124.954 87.296 125.978 87.088 127.082 87.088C127.226 87.088 127.474 87.096 127.826 87.112C128.194 87.128 128.61 87.168 129.074 87.232C129.538 87.28 130.026 87.368 130.538 87.496C131.05 87.624 131.538 87.8 132.002 88.024L130.442 94.552ZM127.946 90.136C127.738 90.104 127.546 90.08 127.37 90.064C127.21 90.048 127.01 90.04 126.77 90.04C126.226 90.04 125.714 90.176 125.234 90.448C124.77 90.72 124.362 91.08 124.01 91.528C123.658 91.96 123.378 92.464 123.17 93.04C122.978 93.616 122.882 94.216 122.882 94.84C122.882 95.608 123.01 96.216 123.266 96.664C123.522 97.112 123.994 97.336 124.682 97.336C125.05 97.336 125.378 97.264 125.666 97.12C125.97 96.976 126.29 96.736 126.626 96.4C126.658 96 126.706 95.584 126.77 95.152C126.85 94.704 126.93 94.296 127.01 93.928L127.946 90.136Z" fill="#A2CA5F"/>
</svg>
