<svg width="49" height="21" viewBox="0 0 49 21" fill="none" xmlns="http://www.w3.org/2000/svg">
<path d="M0.464 0.559999H3.992V17.576H8.72V20H0.464V0.559999ZM15.6352 20.264C13.6192 20.264 12.1792 19.728 11.3152 18.656C10.4512 17.568 10.0192 15.984 10.0192 13.904V6.608C10.0192 4.544 10.4512 2.984 11.3152 1.928C12.1792 0.871999 13.6192 0.343998 15.6352 0.343998C17.6352 0.343998 19.0672 0.871999 19.9312 1.928C20.7952 2.984 21.2272 4.544 21.2272 6.608V13.904C21.2272 15.968 20.7872 17.544 19.9072 18.632C19.0432 19.72 17.6192 20.264 15.6352 20.264ZM15.6352 17.648C16.4192 17.648 16.9472 17.4 17.2192 16.904C17.4912 16.408 17.6272 15.688 17.6272 14.744V5.792C17.6272 4.848 17.4912 4.136 17.2192 3.656C16.9632 3.176 16.4352 2.936 15.6352 2.936C14.8352 2.936 14.2992 3.184 14.0272 3.68C13.7552 4.16 13.6192 4.864 13.6192 5.792V14.744C13.6192 15.688 13.7552 16.408 14.0272 16.904C14.2992 17.4 14.8352 17.648 15.6352 17.648ZM28.7266 20.264C26.8866 20.264 25.5586 19.696 24.7426 18.56C23.9426 17.408 23.5426 15.752 23.5426 13.592V7.064C23.5426 4.84 23.9586 3.168 24.7906 2.048C25.6226 0.911999 27.0546 0.343998 29.0866 0.343998C31.0066 0.343998 32.3826 0.823998 33.2146 1.784C34.0466 2.728 34.4626 4.136 34.4626 6.008V7.016H31.0786V5.912C31.0786 5.208 31.0306 4.648 30.9346 4.232C30.8546 3.816 30.6706 3.496 30.3826 3.272C30.1106 3.048 29.6946 2.936 29.1346 2.936C28.5426 2.936 28.1026 3.08 27.8146 3.368C27.5266 3.656 27.3346 4.024 27.2386 4.472C27.1586 4.92 27.1186 5.504 27.1186 6.224V14.36C27.1186 15.464 27.2626 16.288 27.5506 16.832C27.8546 17.376 28.4146 17.648 29.2306 17.648C30.0306 17.648 30.5826 17.36 30.8866 16.784C31.2066 16.208 31.3666 15.344 31.3666 14.192V12.368H29.2786V10.136H34.5586V20H32.2546L32.0146 18.104C31.4066 19.544 30.3106 20.264 28.7266 20.264ZM42.5649 20.264C40.5489 20.264 39.1089 19.728 38.2449 18.656C37.3809 17.568 36.9489 15.984 36.9489 13.904V6.608C36.9489 4.544 37.3809 2.984 38.2449 1.928C39.1089 0.871999 40.5489 0.343998 42.5649 0.343998C44.5649 0.343998 45.9969 0.871999 46.8609 1.928C47.7249 2.984 48.1569 4.544 48.1569 6.608V13.904C48.1569 15.968 47.7169 17.544 46.8369 18.632C45.9729 19.72 44.5489 20.264 42.5649 20.264ZM42.5649 17.648C43.3489 17.648 43.8769 17.4 44.1489 16.904C44.4209 16.408 44.5569 15.688 44.5569 14.744V5.792C44.5569 4.848 44.4209 4.136 44.1489 3.656C43.8929 3.176 43.3649 2.936 42.5649 2.936C41.7649 2.936 41.2289 3.184 40.9569 3.68C40.6849 4.16 40.5489 4.864 40.5489 5.792V14.744C40.5489 15.688 40.6849 16.408 40.9569 16.904C41.2289 17.4 41.7649 17.648 42.5649 17.648Z" fill="black"/>
</svg>
