<svg width="173" height="105" viewBox="0 0 173 105" fill="none" xmlns="http://www.w3.org/2000/svg">
<rect x="83" y="6" width="25" height="4" rx="2" fill="#C11212"/>
<path d="M89 12H103L101.25 16H90.75L89 12Z" fill="#FF9029"/>
<path d="M69 24C74.5 19.8516 80 17.5 95.5 17.5C109.5 17.5 114.305 21.5 118 24C128.343 30.9975 132.5 49.1484 132.5 49.1484H129.5C129.5 49.1484 124.897 36.1373 118 30.5C107.568 21.9733 89 22.6848 79 29.5C68.0577 36.9574 69 49.1484 69 49.1484H56.5C56.5 49.1484 58.8097 31.686 69 24Z" fill="url(#paint0_linear)"/>
<path d="M57.5 6.05272C61.557 5.64704 61.6636 7.67245 65.5 9.05274C70.108 10.7106 77.5 13.5527 77.5 13.5527C77.5 13.5527 70.5 15.3027 67.5 14.5527C61.3643 13.0188 59.1758 11.7335 54.5 10.5527C49.921 9.39633 44 9.05269 44 9.05269C44 9.05269 52.5 6.5527 57.5 6.05272Z" fill="url(#paint1_linear)"/>
<path d="M37 14.0185C41.057 13.6128 42.1636 17.1381 46 18.5184C50.608 20.1763 60.5 19.5186 60.5 19.5186C60.5 19.5186 47.8712 23.1667 45 22.0183C40 20.0186 39.5 20.0186 37 18.5183C33.0474 16.1464 28 16.071 28 16.071C28 16.071 32 14.5185 37 14.0185Z" fill="#FF9029"/>
<path d="M40 28.4862C42.4081 27.6835 42.9744 28.7407 45.5 28.4862C48.2816 28.2059 52.5 26.9862 52.5 26.9862C52.5 26.9862 48.7237 29.541 46 30.4862C44.4788 31.0141 43.5 31.9862 41 31.4862C38.1279 30.9118 34.5 31.4862 34.5 31.4862C34.5 31.4862 37.9963 29.1541 40 28.4862Z" fill="url(#paint2_linear)"/>
<path d="M119.129 39.6266L121.606 39.2862C121.606 39.2862 122.704 41.2446 123.073 42.6175C123.377 43.749 123.977 45.5215 123.977 45.5215L120.509 45.998C120.509 45.998 120.404 44.1575 120.101 43.0259C119.732 41.653 119.129 39.6266 119.129 39.6266Z" fill="#FFC700"/>
<path d="M115 31.6142C115 31.6142 115.857 31.4106 117.118 32.3325C118.232 33.1474 118.245 33.1871 118.876 34.1098C119.825 35.4963 120.275 36.9457 120.275 36.9457L118.294 37.218C118.294 37.218 118.158 36.2273 117.458 34.8093C116.829 33.5345 115 31.6142 115 31.6142Z" fill="#FFC700"/>
<path d="M48 54C48 52.8954 48.8954 52 50 52H64.5L63.5 54L62.5 56H50C48.8954 56 48 55.1046 48 54Z" fill="url(#paint3_linear)"/>
<path d="M140 54C140 52.8954 139.105 52 138 52H128.5L129.5 54L130.375 56H138C139.105 56 140 55.1046 140 54Z" fill="url(#paint4_linear)"/>
<path d="M85 52H108L107 54L106 56H87L85 52Z" fill="url(#paint5_linear)"/>
<circle cx="74.5" cy="59.5" r="7" stroke="#C11212" stroke-width="5"/>
<circle cx="118.5" cy="59.5" r="7" stroke="#C11212" stroke-width="5"/>
<path d="M59 70C59 68.8954 59.8954 68 61 68H64.5C64.5 68 65.3551 68.98 66 69.5C66.548 69.942 66.8935 70.1426 67.5 70.5C68.7809 71.2548 70.2357 71.6471 71.6935 71.9387L72 72H61C59.8954 72 59 71.1046 59 70Z" fill="#AAABAC"/>
<path d="M103 70C103 68.8954 103.895 68 105 68H108.5C108.5 68 109.355 68.98 110 69.5C110.548 69.942 110.893 70.1426 111.5 70.5C112.781 71.2548 114.236 71.6471 115.694 71.9387L116 72H105C103.895 72 103 71.1046 103 70Z" fill="#AAABAC"/>
<path d="M16.008 85.144C16.04 85.8 16.08 86.544 16.128 87.376C16.192 88.208 16.256 89.072 16.32 89.968C16.4 90.848 16.48 91.728 16.56 92.608C16.64 93.488 16.72 94.304 16.8 95.056C17.216 94.24 17.64 93.36 18.072 92.416C18.504 91.472 18.936 90.496 19.368 89.488C19.8 88.48 20.224 87.456 20.64 86.416C21.072 85.376 21.48 84.36 21.864 83.368H25.824C24.576 86.408 23.304 89.304 22.008 92.056C20.712 94.792 19.32 97.44 17.832 100H14.328C14.2 99.12 14.08 98.28 13.968 97.48C13.872 96.664 13.776 95.864 13.68 95.08C13.6 94.296 13.52 93.504 13.44 92.704C13.376 91.904 13.312 91.072 13.248 90.208C12.336 91.904 11.432 93.568 10.536 95.2C9.656 96.816 8.712 98.416 7.704 100H4.2C4.072 98.512 3.976 97.04 3.912 95.584C3.864 94.128 3.84 92.648 3.84 91.144C3.84 89.848 3.864 88.56 3.912 87.28C3.96 85.984 4.024 84.68 4.104 83.368H7.872C7.792 84.776 7.712 86.16 7.632 87.52C7.568 88.864 7.536 90.264 7.536 91.72C7.536 92.264 7.536 92.816 7.536 93.376C7.536 93.936 7.552 94.496 7.584 95.056C8.032 94.272 8.504 93.44 9 92.56C9.496 91.68 9.984 90.8 10.464 89.92C10.944 89.04 11.4 88.192 11.832 87.376C12.264 86.544 12.632 85.8 12.936 85.144H16.008ZM32.6531 87.16C33.3411 87.16 33.9331 87.264 34.4291 87.472C34.9251 87.664 35.3331 87.944 35.6531 88.312C35.9731 88.664 36.2131 89.088 36.3731 89.584C36.5331 90.08 36.6131 90.616 36.6131 91.192C36.6131 91.864 36.5331 92.528 36.3731 93.184L34.7411 100H31.1651L32.7491 93.328C32.8131 93.056 32.8691 92.768 32.9171 92.464C32.9811 92.16 33.0131 91.872 33.0131 91.6C33.0131 91.184 32.9011 90.832 32.6771 90.544C32.4691 90.24 32.0611 90.088 31.4531 90.088C31.1971 90.088 30.9491 90.104 30.7091 90.136C30.4851 90.168 30.2611 90.208 30.0371 90.256L27.7091 100H24.1331L28.4531 81.952L32.1731 81.376L30.7091 87.4C31.0291 87.336 31.3491 87.28 31.6691 87.232C32.0051 87.184 32.3331 87.16 32.6531 87.16ZM41.2554 100H37.7034L40.7034 87.376H44.2794L41.2554 100ZM42.9834 85.84C42.4874 85.84 42.0394 85.696 41.6394 85.408C41.2394 85.104 41.0394 84.648 41.0394 84.04C41.0394 83.704 41.1034 83.392 41.2314 83.104C41.3754 82.8 41.5594 82.544 41.7834 82.336C42.0074 82.112 42.2634 81.936 42.5514 81.808C42.8554 81.68 43.1754 81.616 43.5114 81.616C44.0074 81.616 44.4554 81.768 44.8554 82.072C45.2554 82.36 45.4554 82.808 45.4554 83.416C45.4554 83.752 45.3834 84.072 45.2394 84.376C45.1114 84.664 44.9354 84.92 44.7114 85.144C44.4874 85.352 44.2234 85.52 43.9194 85.648C43.6314 85.776 43.3194 85.84 42.9834 85.84ZM47.9323 84.232L51.6523 83.656L50.7403 87.376H54.7243L54.0043 90.304H50.0443L48.9883 94.72C48.8923 95.088 48.8283 95.432 48.7963 95.752C48.7803 96.072 48.8203 96.352 48.9163 96.592C49.0283 96.816 49.2123 96.992 49.4683 97.12C49.7243 97.248 50.0763 97.312 50.5243 97.312C50.9083 97.312 51.2763 97.28 51.6283 97.216C51.9963 97.136 52.3643 97.032 52.7323 96.904L52.9963 99.64C52.5163 99.816 51.9963 99.968 51.4363 100.096C50.8763 100.224 50.2123 100.288 49.4443 100.288C48.3403 100.288 47.4843 100.128 46.8763 99.808C46.2683 99.472 45.8363 99.024 45.5803 98.464C45.3243 97.888 45.2123 97.232 45.2443 96.496C45.2763 95.76 45.3883 94.984 45.5803 94.168L47.9323 84.232ZM54.8531 95.056C54.8531 94.032 55.0291 93.04 55.3811 92.08C55.7491 91.12 56.2611 90.272 56.9171 89.536C57.5731 88.784 58.3651 88.184 59.2931 87.736C60.2371 87.272 61.2771 87.04 62.4131 87.04C62.9731 87.04 63.4931 87.12 63.9731 87.28C64.4531 87.44 64.8691 87.672 65.2211 87.976C65.5891 88.28 65.8691 88.656 66.0611 89.104C66.2691 89.536 66.3731 90.032 66.3731 90.592C66.3731 91.488 66.1731 92.248 65.7731 92.872C65.3731 93.496 64.8131 94.008 64.0931 94.408C63.3891 94.792 62.5491 95.072 61.5731 95.248C60.5971 95.424 59.5331 95.512 58.3811 95.512C58.4931 96.184 58.7331 96.664 59.1011 96.952C59.4851 97.224 60.0851 97.36 60.9011 97.36C61.4131 97.36 61.9331 97.32 62.4611 97.24C62.9891 97.144 63.4851 97.008 63.9491 96.832L64.2131 99.64C63.7651 99.816 63.1891 99.976 62.4851 100.12C61.7971 100.264 61.0451 100.336 60.2291 100.336C59.2371 100.336 58.3971 100.2 57.7091 99.928C57.0371 99.64 56.4851 99.256 56.0531 98.776C55.6371 98.296 55.3331 97.736 55.1411 97.096C54.9491 96.456 54.8531 95.776 54.8531 95.056ZM61.8371 89.872C61.0211 89.872 60.3011 90.168 59.6771 90.76C59.0691 91.336 58.6691 92.104 58.4771 93.064C59.4691 93.032 60.2691 92.952 60.8771 92.824C61.4851 92.68 61.9571 92.512 62.2931 92.32C62.6291 92.128 62.8531 91.92 62.9651 91.696C63.0771 91.472 63.1331 91.248 63.1331 91.024C63.1331 90.256 62.7011 89.872 61.8371 89.872ZM72.6677 100.216C71.7077 100.216 70.7237 100.176 69.7157 100.096C68.7077 100.016 67.7957 99.888 66.9797 99.712L70.8197 83.632C71.7317 83.456 72.6837 83.336 73.6757 83.272C74.6837 83.208 75.6037 83.176 76.4357 83.176C77.3957 83.176 78.2197 83.28 78.9077 83.488C79.6117 83.68 80.1797 83.944 80.6117 84.28C81.0597 84.616 81.3877 85.016 81.5957 85.48C81.8197 85.928 81.9317 86.408 81.9317 86.92C81.9317 87.272 81.8917 87.64 81.8117 88.024C81.7477 88.408 81.6037 88.792 81.3797 89.176C81.1717 89.544 80.8757 89.896 80.4917 90.232C80.1237 90.568 79.6357 90.872 79.0277 91.144C79.7477 91.464 80.2757 91.904 80.6117 92.464C80.9477 93.008 81.1157 93.616 81.1157 94.288C81.1157 95.056 80.9637 95.8 80.6597 96.52C80.3557 97.224 79.8677 97.856 79.1957 98.416C78.5237 98.96 77.6517 99.4 76.5797 99.736C75.5077 100.056 74.2037 100.216 72.6677 100.216ZM72.3317 92.728L71.2997 97.048C71.5557 97.096 71.8757 97.136 72.2597 97.168C72.6597 97.184 73.0277 97.192 73.3637 97.192C73.8437 97.192 74.3157 97.16 74.7797 97.096C75.2597 97.016 75.6837 96.88 76.0517 96.688C76.4357 96.496 76.7477 96.232 76.9877 95.896C77.2277 95.56 77.3477 95.128 77.3477 94.6C77.3477 94.376 77.2997 94.152 77.2037 93.928C77.1237 93.704 76.9877 93.504 76.7957 93.328C76.6037 93.152 76.3477 93.008 76.0277 92.896C75.7237 92.784 75.3557 92.728 74.9237 92.728H72.3317ZM73.0277 89.92H75.3797C76.3397 89.92 77.0517 89.712 77.5157 89.296C77.9957 88.88 78.2357 88.384 78.2357 87.808C78.2357 87.504 78.1637 87.248 78.0197 87.04C77.8917 86.816 77.7157 86.64 77.4917 86.512C77.2677 86.384 77.0117 86.296 76.7237 86.248C76.4357 86.184 76.1397 86.152 75.8357 86.152C75.4997 86.152 75.1397 86.168 74.7557 86.2C74.3717 86.216 74.0837 86.24 73.8917 86.272L73.0277 89.92ZM88.3686 100.336C87.5206 100.336 86.7846 100.208 86.1606 99.952C85.5366 99.696 85.0166 99.336 84.6006 98.872C84.2006 98.408 83.8966 97.864 83.6886 97.24C83.4806 96.6 83.3766 95.896 83.3766 95.128C83.3766 94.168 83.5286 93.208 83.8326 92.248C84.1526 91.288 84.6166 90.424 85.2246 89.656C85.8326 88.888 86.5766 88.264 87.4566 87.784C88.3366 87.288 89.3446 87.04 90.4806 87.04C91.3126 87.04 92.0406 87.168 92.6646 87.424C93.3046 87.68 93.8246 88.04 94.2246 88.504C94.6406 88.968 94.9526 89.52 95.1606 90.16C95.3686 90.784 95.4726 91.48 95.4726 92.248C95.4726 93.208 95.3206 94.168 95.0166 95.128C94.7126 96.088 94.2646 96.952 93.6726 97.72C93.0806 98.488 92.3366 99.12 91.4406 99.616C90.5606 100.096 89.5366 100.336 88.3686 100.336ZM90.1446 90.064C89.6166 90.064 89.1526 90.216 88.7526 90.52C88.3526 90.824 88.0166 91.208 87.7446 91.672C87.4726 92.136 87.2646 92.648 87.1206 93.208C86.9926 93.752 86.9286 94.272 86.9286 94.768C86.9286 95.584 87.0566 96.216 87.3126 96.664C87.5686 97.096 88.0326 97.312 88.7046 97.312C89.2326 97.312 89.6966 97.16 90.0966 96.856C90.4966 96.552 90.8326 96.168 91.1046 95.704C91.3766 95.24 91.5766 94.736 91.7046 94.192C91.8486 93.632 91.9206 93.104 91.9206 92.608C91.9206 91.792 91.7926 91.168 91.5366 90.736C91.2806 90.288 90.8166 90.064 90.1446 90.064ZM100.892 87.376L102.716 91.312C103.26 90.64 103.772 89.984 104.252 89.344C104.748 88.704 105.22 88.048 105.668 87.376H109.244C108.572 88.336 107.836 89.336 107.036 90.376C106.236 91.4 105.308 92.472 104.252 93.592C104.892 94.792 105.436 95.904 105.884 96.928C106.332 97.936 106.732 98.96 107.084 100H103.556C103.268 99.216 102.98 98.496 102.692 97.84C102.404 97.184 102.124 96.576 101.852 96.016L98.3724 100H94.6284L100.364 93.568L97.2684 87.376H100.892ZM117.688 83.176C118.696 83.176 119.6 83.288 120.4 83.512C121.216 83.72 121.904 84.032 122.464 84.448C123.024 84.848 123.456 85.344 123.76 85.936C124.064 86.528 124.216 87.192 124.216 87.928C124.216 89.128 123.984 90.144 123.52 90.976C123.056 91.808 122.416 92.48 121.6 92.992C120.784 93.504 119.824 93.872 118.72 94.096C117.616 94.32 116.416 94.432 115.12 94.432H114.184L112.84 100H109.12L113.032 83.608C113.896 83.448 114.712 83.336 115.48 83.272C116.264 83.208 117 83.176 117.688 83.176ZM117.376 86.32C117.104 86.32 116.872 86.328 116.68 86.344C116.488 86.36 116.296 86.376 116.104 86.392L114.952 91.288H115.888C116.56 91.288 117.168 91.24 117.712 91.144C118.272 91.032 118.744 90.856 119.128 90.616C119.528 90.376 119.832 90.072 120.04 89.704C120.264 89.32 120.376 88.856 120.376 88.312C120.376 87.592 120.112 87.08 119.584 86.776C119.072 86.472 118.336 86.32 117.376 86.32ZM127.88 100H124.328L127.328 87.376H130.904L127.88 100ZM129.608 85.84C129.112 85.84 128.664 85.696 128.264 85.408C127.864 85.104 127.664 84.648 127.664 84.04C127.664 83.704 127.728 83.392 127.856 83.104C128 82.8 128.184 82.544 128.408 82.336C128.632 82.112 128.888 81.936 129.176 81.808C129.48 81.68 129.8 81.616 130.136 81.616C130.632 81.616 131.08 81.768 131.48 82.072C131.88 82.36 132.08 82.808 132.08 83.416C132.08 83.752 132.008 84.072 131.864 84.376C131.736 84.664 131.56 84.92 131.336 85.144C131.112 85.352 130.848 85.52 130.544 85.648C130.256 85.776 129.944 85.84 129.608 85.84ZM143.413 89.752C143.045 90.072 142.565 90.512 141.973 91.072C141.381 91.616 140.741 92.224 140.053 92.896C139.365 93.552 138.661 94.248 137.941 94.984C137.221 95.704 136.549 96.4 135.925 97.072H141.781L141.061 100H130.885L131.389 97.912C131.853 97.336 132.381 96.712 132.973 96.04C133.581 95.368 134.205 94.688 134.845 94C135.501 93.312 136.149 92.656 136.789 92.032C137.445 91.392 138.053 90.816 138.613 90.304H133.477L134.197 87.376H143.989L143.413 89.752ZM156.046 89.752C155.678 90.072 155.198 90.512 154.606 91.072C154.014 91.616 153.374 92.224 152.686 92.896C151.998 93.552 151.294 94.248 150.574 94.984C149.854 95.704 149.182 96.4 148.558 97.072H154.414L153.694 100H143.518L144.022 97.912C144.486 97.336 145.014 96.712 145.606 96.04C146.214 95.368 146.838 94.688 147.478 94C148.134 93.312 148.782 92.656 149.422 92.032C150.078 91.392 150.686 90.816 151.246 90.304H146.11L146.83 87.376H156.622L156.046 89.752ZM168.223 94.552C167.999 95.464 167.935 96.384 168.031 97.312C168.127 98.224 168.311 99.04 168.583 99.76L165.391 100.216C165.295 100.024 165.207 99.84 165.127 99.664C165.047 99.488 164.967 99.288 164.887 99.064C164.439 99.432 163.943 99.736 163.399 99.976C162.855 100.216 162.247 100.336 161.575 100.336C160.775 100.336 160.087 100.2 159.511 99.928C158.951 99.64 158.487 99.264 158.119 98.8C157.767 98.32 157.511 97.768 157.351 97.144C157.191 96.504 157.111 95.824 157.111 95.104C157.111 94 157.303 92.96 157.687 91.984C158.087 91.008 158.631 90.16 159.319 89.44C160.023 88.704 160.847 88.128 161.791 87.712C162.735 87.296 163.759 87.088 164.863 87.088C165.007 87.088 165.255 87.096 165.607 87.112C165.975 87.128 166.391 87.168 166.855 87.232C167.319 87.28 167.807 87.368 168.319 87.496C168.831 87.624 169.319 87.8 169.783 88.024L168.223 94.552ZM165.727 90.136C165.519 90.104 165.327 90.08 165.151 90.064C164.991 90.048 164.791 90.04 164.551 90.04C164.007 90.04 163.495 90.176 163.015 90.448C162.551 90.72 162.143 91.08 161.791 91.528C161.439 91.96 161.159 92.464 160.951 93.04C160.759 93.616 160.663 94.216 160.663 94.84C160.663 95.608 160.791 96.216 161.047 96.664C161.303 97.112 161.775 97.336 162.463 97.336C162.831 97.336 163.159 97.264 163.447 97.12C163.751 96.976 164.071 96.736 164.407 96.4C164.439 96 164.487 95.584 164.551 95.152C164.631 94.704 164.711 94.296 164.791 93.928L165.727 90.136Z" fill="url(#paint6_linear)"/>
<defs>
<linearGradient id="paint0_linear" x1="57" y1="11" x2="112" y2="49" gradientUnits="userSpaceOnUse">
<stop stop-color="#F7A62D"/>
<stop offset="1" stop-color="#DE1A1A"/>
</linearGradient>
<linearGradient id="paint1_linear" x1="60.75" y1="6" x2="60.75" y2="14.7396" gradientUnits="userSpaceOnUse">
<stop stop-color="#FF0000"/>
<stop offset="0.703125" stop-color="#FFB800"/>
</linearGradient>
<linearGradient id="paint2_linear" x1="43.5" y1="26.9862" x2="43.5" y2="31.625" gradientUnits="userSpaceOnUse">
<stop stop-color="#FF0000"/>
<stop offset="0.703125" stop-color="#FFB800"/>
</linearGradient>
<linearGradient id="paint3_linear" x1="40" y1="48" x2="142" y2="55" gradientUnits="userSpaceOnUse">
<stop stop-color="#FFC700"/>
<stop offset="1" stop-color="#FF0000"/>
</linearGradient>
<linearGradient id="paint4_linear" x1="111.5" y1="50" x2="144" y2="54" gradientUnits="userSpaceOnUse">
<stop stop-color="#FFC700"/>
<stop offset="1" stop-color="#FF0000"/>
</linearGradient>
<linearGradient id="paint5_linear" x1="70.5" y1="49" x2="137" y2="57" gradientUnits="userSpaceOnUse">
<stop stop-color="#FFC700"/>
<stop offset="1" stop-color="#FF0000"/>
</linearGradient>
<linearGradient id="paint6_linear" x1="218.5" y1="58.5" x2="-63" y2="116.5" gradientUnits="userSpaceOnUse">
<stop stop-color="#D61414"/>
<stop offset="1" stop-color="#FFD600"/>
</linearGradient>
</defs>
</svg>
