<svg width="24" height="24" viewBox="0 0 24 24" fill="none" xmlns="http://www.w3.org/2000/svg">
<circle cx="12" cy="12" r="11.75" stroke="#868686" stroke-width="0.5"/>
<g clip-path="url(#clip0)">
<path d="M13.6551 10.3476C13.4998 10.3476 13.374 10.4734 13.374 10.6286V15.9401C13.374 16.0952 13.4998 16.2211 13.6551 16.2211C13.8103 16.2211 13.9361 16.0952 13.9361 15.9401V10.6286C13.9361 10.4734 13.8103 10.3476 13.6551 10.3476Z" fill="#7D7D7D"/>
<path d="M10.3391 10.3476C10.1839 10.3476 10.0581 10.4734 10.0581 10.6286V15.9401C10.0581 16.0952 10.1839 16.2211 10.3391 16.2211C10.4944 16.2211 10.6202 16.0952 10.6202 15.9401V10.6286C10.6202 10.4734 10.4944 10.3476 10.3391 10.3476Z" fill="#7D7D7D"/>
<path d="M7.92219 9.57245V16.4964C7.92219 16.9057 8.07226 17.29 8.33441 17.5658C8.59535 17.8423 8.95849 17.9993 9.33854 17.9999H14.6557C15.0359 17.9993 15.399 17.8423 15.6598 17.5658C15.922 17.29 16.0721 16.9057 16.0721 16.4964V9.57245C16.5932 9.43414 16.9308 8.9307 16.8611 8.39597C16.7913 7.86136 16.3358 7.46144 15.7966 7.46133H14.3578V7.11004C14.3594 6.81463 14.2426 6.53097 14.0335 6.32228C13.8244 6.11371 13.5403 5.99756 13.2448 5.99998H10.7494C10.454 5.99756 10.1699 6.11371 9.96076 6.32228C9.75163 6.53097 9.63483 6.81463 9.63647 7.11004V7.46133H8.19762C7.6584 7.46144 7.20293 7.86136 7.13311 8.39597C7.06341 8.9307 7.40108 9.43414 7.92219 9.57245ZM14.6557 17.4379H9.33854C8.85804 17.4379 8.48425 17.0251 8.48425 16.4964V9.59715H15.51V16.4964C15.51 17.0251 15.1362 17.4379 14.6557 17.4379ZM10.1985 7.11004C10.1967 6.96371 10.2542 6.82287 10.358 6.71957C10.4618 6.61626 10.603 6.55951 10.7494 6.56204H13.2448C13.3913 6.55951 13.5325 6.61626 13.6362 6.71957C13.7401 6.82276 13.7976 6.96371 13.7957 7.11004V7.46133H10.1985V7.11004ZM8.19762 8.02339H15.7966C16.076 8.02339 16.3025 8.24986 16.3025 8.52924C16.3025 8.80862 16.076 9.0351 15.7966 9.0351H8.19762C7.91824 9.0351 7.69177 8.80862 7.69177 8.52924C7.69177 8.24986 7.91824 8.02339 8.19762 8.02339Z" fill="#7D7D7D"/>
<path d="M11.9973 10.3476C11.8421 10.3476 11.7163 10.4734 11.7163 10.6286V15.9401C11.7163 16.0952 11.8421 16.2211 11.9973 16.2211C12.1526 16.2211 12.2784 16.0952 12.2784 15.9401V10.6286C12.2784 10.4734 12.1526 10.3476 11.9973 10.3476Z" fill="#7D7D7D"/>
</g>
<defs>
<clipPath id="clip0">
<rect width="12" height="12" fill="white" transform="translate(6 6)"/>
</clipPath>
</defs>
</svg>
