<svg width="16" height="16" viewBox="0 0 16 16" fill="none" xmlns="http://www.w3.org/2000/svg">
<path d="M7.99991 2.42676C6.07696 2.42676 4.51245 3.9912 4.51245 5.91416C4.51245 7.83711 6.07696 9.40156 7.99991 9.40156C9.92287 9.40156 11.4874 7.83711 11.4874 5.91416C11.4874 3.9912 9.92287 2.42676 7.99991 2.42676ZM7.99991 8.46347C6.59418 8.46347 5.45048 7.31982 5.45048 5.91409C5.45048 4.50837 6.59418 3.36479 7.99991 3.36479C9.40564 3.36479 10.5493 4.50843 10.5493 5.91416C10.5493 7.31989 9.4057 8.46347 7.99991 8.46347Z" fill="#A9A9A9"/>
<path d="M7.99988 0C4.73905 0 2.08618 2.65287 2.08618 5.9137C2.08618 7.79426 3.66332 10.596 4.60341 12.0987C5.22195 13.0873 5.88663 14.0282 6.47496 14.748C7.41931 15.9033 7.75731 15.9999 7.99995 15.9999C8.24621 15.9999 8.56533 15.9032 9.50673 14.7473C10.0964 14.0232 10.7614 13.0829 11.3793 12.0994C12.3258 10.5931 13.9136 7.78632 13.9136 5.91364C13.9136 2.65287 11.2608 0 7.99988 0ZM10.729 11.3691C9.51605 13.3379 8.40248 14.6683 7.99432 15.0079C7.58402 14.6787 6.48853 13.38 5.25865 11.3753C3.83867 9.06053 3.02427 7.06985 3.02427 5.9137C3.02421 3.1701 5.25628 0.938028 7.99988 0.938028C10.7435 0.938028 12.9756 3.1701 12.9756 5.9137C12.9756 7.06322 12.1567 9.05159 10.729 11.3691Z" fill="#A9A9A9"/>
</svg>
