<svg width="119" height="36" viewBox="0 0 119 36" fill="none" xmlns="http://www.w3.org/2000/svg">
<path d="M7.32031 29.3516H22.25V35H0.289062V0.875H7.32031V29.3516ZM52.8359 18.7109C52.8359 22.0703 52.2422 25.0156 51.0547 27.5469C49.8672 30.0781 48.1641 32.0312 45.9453 33.4062C43.7422 34.7812 41.2109 35.4688 38.3516 35.4688C35.5234 35.4688 33 34.7891 30.7812 33.4297C28.5625 32.0703 26.8438 30.1328 25.625 27.6172C24.4062 25.0859 23.7891 22.1797 23.7734 18.8984V17.2109C23.7734 13.8516 24.375 10.8984 25.5781 8.35156C26.7969 5.78906 28.5078 3.82812 30.7109 2.46875C32.9297 1.09375 35.4609 0.40625 38.3047 0.40625C41.1484 0.40625 43.6719 1.09375 45.875 2.46875C48.0938 3.82812 49.8047 5.78906 51.0078 8.35156C52.2266 10.8984 52.8359 13.8438 52.8359 17.1875V18.7109ZM45.7109 17.1641C45.7109 13.5859 45.0703 10.8672 43.7891 9.00781C42.5078 7.14844 40.6797 6.21875 38.3047 6.21875C35.9453 6.21875 34.125 7.14062 32.8438 8.98438C31.5625 10.8125 30.9141 13.5 30.8984 17.0469V18.7109C30.8984 22.1953 31.5391 24.8984 32.8203 26.8203C34.1016 28.7422 35.9453 29.7031 38.3516 29.7031C40.7109 29.7031 42.5234 28.7812 43.7891 26.9375C45.0547 25.0781 45.6953 22.375 45.7109 18.8281V17.1641ZM84.9453 30.6875C83.6797 32.2031 81.8906 33.3828 79.5781 34.2266C77.2656 35.0547 74.7031 35.4688 71.8906 35.4688C68.9375 35.4688 66.3438 34.8281 64.1094 33.5469C61.8906 32.25 60.1719 30.375 58.9531 27.9219C57.75 25.4688 57.1328 22.5859 57.1016 19.2734V16.9531C57.1016 13.5469 57.6719 10.6016 58.8125 8.11719C59.9688 5.61719 61.625 3.71094 63.7812 2.39844C65.9531 1.07031 68.4922 0.40625 71.3984 0.40625C75.4453 0.40625 78.6094 1.375 80.8906 3.3125C83.1719 5.23438 84.5234 8.03906 84.9453 11.7266H78.1016C77.7891 9.77344 77.0938 8.34375 76.0156 7.4375C74.9531 6.53125 73.4844 6.07812 71.6094 6.07812C69.2188 6.07812 67.3984 6.97656 66.1484 8.77344C64.8984 10.5703 64.2656 13.2422 64.25 16.7891V18.9688C64.25 22.5469 64.9297 25.25 66.2891 27.0781C67.6484 28.9062 69.6406 29.8203 72.2656 29.8203C74.9062 29.8203 76.7891 29.2578 77.9141 28.1328V22.25H71.5156V17.0703H84.9453V30.6875ZM118.695 18.7109C118.695 22.0703 118.102 25.0156 116.914 27.5469C115.727 30.0781 114.023 32.0312 111.805 33.4062C109.602 34.7812 107.07 35.4688 104.211 35.4688C101.383 35.4688 98.8594 34.7891 96.6406 33.4297C94.4219 32.0703 92.7031 30.1328 91.4844 27.6172C90.2656 25.0859 89.6484 22.1797 89.6328 18.8984V17.2109C89.6328 13.8516 90.2344 10.8984 91.4375 8.35156C92.6562 5.78906 94.3672 3.82812 96.5703 2.46875C98.7891 1.09375 101.32 0.40625 104.164 0.40625C107.008 0.40625 109.531 1.09375 111.734 2.46875C113.953 3.82812 115.664 5.78906 116.867 8.35156C118.086 10.8984 118.695 13.8438 118.695 17.1875V18.7109ZM111.57 17.1641C111.57 13.5859 110.93 10.8672 109.648 9.00781C108.367 7.14844 106.539 6.21875 104.164 6.21875C101.805 6.21875 99.9844 7.14062 98.7031 8.98438C97.4219 10.8125 96.7734 13.5 96.7578 17.0469V18.7109C96.7578 22.1953 97.3984 24.8984 98.6797 26.8203C99.9609 28.7422 101.805 29.7031 104.211 29.7031C106.57 29.7031 108.383 28.7812 109.648 26.9375C110.914 25.0781 111.555 22.375 111.57 18.8281V17.1641Z" fill="white"/>
</svg>
