<svg width="14" height="22" viewBox="0 0 14 22" fill="none" xmlns="http://www.w3.org/2000/svg">
<path d="M0.889009 10.1416L10.6793 0.351461C10.9057 0.124845 11.208 0 11.5303 0C11.8526 0 12.1549 0.124845 12.3813 0.351461L13.1023 1.07227C13.5715 1.54195 13.5715 2.30533 13.1023 2.7743L4.88117 10.9954L13.1114 19.2257C13.3379 19.4523 13.4629 19.7544 13.4629 20.0765C13.4629 20.399 13.3379 20.7011 13.1114 20.9279L12.3904 21.6485C12.1638 21.8752 11.8617 22 11.5394 22C11.2171 22 10.9148 21.8752 10.6884 21.6485L0.889009 11.8495C0.662035 11.6222 0.53737 11.3186 0.538085 10.996C0.53737 10.6721 0.662035 10.3687 0.889009 10.1416Z" fill="white"/>
</svg>
