<svg width="14" height="22" viewBox="0 0 14 22" fill="none" xmlns="http://www.w3.org/2000/svg">
<path d="M13.111 10.1416L3.32071 0.351461C3.09428 0.124845 2.792 0 2.4697 0C2.14739 0 1.84512 0.124845 1.61868 0.351461L0.897692 1.07227C0.428541 1.54195 0.428541 2.30533 0.897692 2.7743L9.11883 10.9954L0.88857 19.2257C0.662133 19.4523 0.537109 19.7544 0.537109 20.0765C0.537109 20.399 0.662133 20.7011 0.88857 20.9279L1.60956 21.6485C1.83617 21.8752 2.13827 22 2.46057 22C2.78288 22 3.08515 21.8752 3.31159 21.6485L13.111 11.8495C13.338 11.6222 13.4626 11.3186 13.4619 10.996C13.4626 10.6721 13.338 10.3687 13.111 10.1416Z" fill="white"/>
</svg>
