<svg width="40" height="35" viewBox="0 0 40 35" fill="none" xmlns="http://www.w3.org/2000/svg">
<path d="M10.8327 26.5741H7.49935C7.03935 26.5741 6.66602 26.1966 6.66602 25.7315C6.66602 25.2664 7.03935 24.8889 7.49935 24.8889H10.8327C11.2927 24.8889 11.666 25.2664 11.666 25.7315C11.666 26.1966 11.2927 26.5741 10.8327 26.5741Z" fill="#4D4D4D"/>
<path d="M37.9156 26.5741H35.8323C35.3723 26.5741 34.999 26.1966 34.999 25.7315C34.999 25.2664 35.3723 24.8889 35.8323 24.8889H37.224L38.3473 18.8357C38.3323 15.7383 35.7156 13.0926 32.499 13.0926H27.0273L24.3756 24.8889H29.1656C29.6256 24.8889 29.999 25.2664 29.999 25.7315C29.999 26.1966 29.6256 26.5741 29.1656 26.5741H23.3323C23.079 26.5741 22.839 26.4578 22.6806 26.2573C22.5223 26.0584 22.4623 25.7955 22.519 25.5461L25.549 12.0646C25.6356 11.6787 25.9723 11.4074 26.3623 11.4074H32.499C36.634 11.4074 39.999 14.8098 39.999 18.9907L38.734 25.8865C38.6606 26.2859 38.3173 26.5741 37.9156 26.5741Z" fill="#4D4D4D"/>
<path d="M32.5006 29.9445C30.204 29.9445 28.334 28.0554 28.334 25.7315C28.334 23.4076 30.204 21.5185 32.5006 21.5185C34.7973 21.5185 36.6673 23.4076 36.6673 25.7315C36.6673 28.0554 34.7973 29.9445 32.5006 29.9445ZM32.5006 23.2037C31.1223 23.2037 30.0006 24.3378 30.0006 25.7315C30.0006 27.1251 31.1223 28.2593 32.5006 28.2593C33.879 28.2593 35.0006 27.1251 35.0006 25.7315C35.0006 24.3378 33.879 23.2037 32.5006 23.2037Z" fill="#4D4D4D"/>
<path d="M14.1667 29.9445C11.87 29.9445 10 28.0554 10 25.7315C10 23.4076 11.87 21.5185 14.1667 21.5185C16.4633 21.5185 18.3333 23.4076 18.3333 25.7315C18.3333 28.0554 16.4633 29.9445 14.1667 29.9445ZM14.1667 23.2037C12.7883 23.2037 11.6667 24.3378 11.6667 25.7315C11.6667 27.1251 12.7883 28.2593 14.1667 28.2593C15.545 28.2593 16.6667 27.1251 16.6667 25.7315C16.6667 24.3378 15.545 23.2037 14.1667 23.2037Z" fill="#4D4D4D"/>
<path d="M10.834 11.4074H4.16732C3.70732 11.4074 3.33398 11.0299 3.33398 10.5648C3.33398 10.0997 3.70732 9.72223 4.16732 9.72223H10.834C11.294 9.72223 11.6673 10.0997 11.6673 10.5648C11.6673 11.0299 11.294 11.4074 10.834 11.4074Z" fill="#4D4D4D"/>
<path d="M10.8327 16.4629H2.49935C2.03935 16.4629 1.66602 16.0855 1.66602 15.6204C1.66602 15.1553 2.03935 14.7778 2.49935 14.7778H10.8327C11.2927 14.7778 11.666 15.1553 11.666 15.6204C11.666 16.0855 11.2927 16.4629 10.8327 16.4629Z" fill="#4D4D4D"/>
<path d="M10.8333 21.5185H0.833333C0.373333 21.5185 0 21.141 0 20.6759C0 20.2108 0.373333 19.8333 0.833333 19.8333H10.8333C11.2933 19.8333 11.6667 20.2108 11.6667 20.6759C11.6667 21.141 11.2933 21.5185 10.8333 21.5185Z" fill="#4D4D4D"/>
<path d="M23.3327 26.5741H17.4993C17.0393 26.5741 16.666 26.1966 16.666 25.7315C16.666 25.2664 17.0393 24.8889 17.4993 24.8889H22.6677L26.4543 8.03705H7.49935C7.03935 8.03705 6.66602 7.65957 6.66602 7.19446C6.66602 6.72935 7.03935 6.35187 7.49935 6.35187H27.4993C27.7527 6.35187 27.9927 6.46815 28.151 6.66868C28.3093 6.86753 28.3694 7.13042 28.3127 7.37983L24.146 25.9169C24.0593 26.3028 23.721 26.5741 23.3327 26.5741Z" fill="#4D4D4D"/>
</svg>
