<svg width="18" height="18" viewBox="0 0 18 18" fill="none" xmlns="http://www.w3.org/2000/svg">
<path d="M14.973 3.12964C13.5988 1.14086 11.421 0 8.99836 0C6.57571 0 4.39789 1.14086 3.02374 3.12964C1.65633 5.10838 1.3406 7.61351 2.17745 9.82677C2.40129 10.4312 2.75711 11.0184 3.23249 11.5687L8.51922 17.7784C8.63879 17.919 8.81397 18 8.99836 18C9.18276 18 9.35794 17.919 9.47751 17.7784L14.7628 11.5703C15.2403 11.0169 15.5956 10.4303 15.8176 9.83078C16.6561 7.61351 16.3404 5.10838 14.973 3.12964ZM14.639 9.38999C14.4678 9.85257 14.1884 10.3099 13.8089 10.7498C13.8078 10.7509 13.8068 10.7519 13.8059 10.7532L8.99836 16.3999L4.18787 10.7497C3.80856 10.3101 3.52911 9.85282 3.35624 9.38581C2.66416 7.55539 2.92681 5.48413 4.05905 3.84546C5.19485 2.20155 6.99527 1.25873 8.99836 1.25873C11.0014 1.25873 12.8016 2.20152 13.9375 3.84546C15.0699 5.48413 15.3328 7.55539 14.639 9.38999Z" fill="#4D4D4D"/>
<path d="M9.00105 3.73428C7.05775 3.73428 5.47656 5.31526 5.47656 7.25877C5.47656 9.20228 7.05754 10.7833 9.00105 10.7833C10.9446 10.7833 12.5255 9.20228 12.5255 7.25877C12.5255 5.31547 10.9443 3.73428 9.00105 3.73428ZM9.00105 9.52448C7.75173 9.52448 6.7353 8.50805 6.7353 7.25873C6.7353 6.00942 7.75173 4.99298 9.00105 4.99298C10.2504 4.99298 11.2668 6.00942 11.2668 7.25873C11.2668 8.50805 10.2504 9.52448 9.00105 9.52448Z" fill="#4D4D4D"/>
</svg>
