<svg width="14" height="14" viewBox="0 0 14 14" fill="none" xmlns="http://www.w3.org/2000/svg">
<g clip-path="url(#clip0)">
<path d="M8.93138 5.0722C8.75029 5.0722 8.60352 5.21898 8.60352 5.40007V11.5968C8.60352 11.7778 8.75029 11.9247 8.93138 11.9247C9.11248 11.9247 9.25925 11.7778 9.25925 11.5968V5.40007C9.25925 5.21898 9.11248 5.0722 8.93138 5.0722Z" fill="#E92424"/>
<path d="M5.06224 5.0722C4.88115 5.0722 4.73438 5.21898 4.73438 5.40007V11.5968C4.73438 11.7778 4.88115 11.9247 5.06224 11.9247C5.24334 11.9247 5.39011 11.7778 5.39011 11.5968V5.40007C5.39011 5.21898 5.24334 5.0722 5.06224 5.0722Z" fill="#E92424"/>
<path d="M2.24174 4.16793V12.2459C2.24174 12.7234 2.41682 13.1717 2.72266 13.4935C3.02709 13.8161 3.45076 13.9992 3.89415 14H10.0975C10.541 13.9992 10.9647 13.8161 11.269 13.4935C11.5748 13.1717 11.7499 12.7234 11.7499 12.2459V4.16793C12.3579 4.00656 12.7518 3.41922 12.6705 2.79537C12.589 2.17166 12.0577 1.70508 11.4286 1.70496H9.74992V1.29512C9.75184 0.950476 9.61557 0.619534 9.37159 0.376067C9.12761 0.132727 8.79616 -0.00277453 8.45151 4.30791e-05H5.54015C5.1955 -0.00277453 4.86405 0.132727 4.62007 0.376067C4.37609 0.619534 4.23982 0.950476 4.24174 1.29512V1.70496H2.56308C1.93398 1.70508 1.40261 2.17166 1.32115 2.79537C1.23983 3.41922 1.63378 4.00656 2.24174 4.16793ZM10.0975 13.3443H3.89415C3.33357 13.3443 2.89748 12.8627 2.89748 12.2459V4.19675H11.0942V12.2459C11.0942 12.8627 10.6581 13.3443 10.0975 13.3443ZM4.89747 1.29512C4.8953 1.1244 4.96241 0.960081 5.08356 0.839564C5.20459 0.719047 5.3693 0.652833 5.54015 0.655779H8.45151C8.62236 0.652833 8.78706 0.719047 8.90809 0.839564C9.02925 0.959953 9.09636 1.1244 9.09418 1.29512V1.70496H4.89747V1.29512ZM2.56308 2.36069H11.4286C11.7545 2.36069 12.0187 2.62491 12.0187 2.95085C12.0187 3.2768 11.7545 3.54102 11.4286 3.54102H2.56308C2.23713 3.54102 1.97292 3.2768 1.97292 2.95085C1.97292 2.62491 2.23713 2.36069 2.56308 2.36069Z" fill="#E92424"/>
<path d="M6.99583 5.0722C6.81474 5.0722 6.66797 5.21898 6.66797 5.40007V11.5968C6.66797 11.7778 6.81474 11.9247 6.99583 11.9247C7.17693 11.9247 7.3237 11.7778 7.3237 11.5968V5.40007C7.3237 5.21898 7.17693 5.0722 6.99583 5.0722Z" fill="#E92424"/>
</g>
<defs>
<clipPath id="clip0">
<rect width="14" height="14" fill="white"/>
</clipPath>
</defs>
</svg>
