<svg width="11" height="11" viewBox="0 0 11 11" fill="none" xmlns="http://www.w3.org/2000/svg">
<path d="M10.3528 4.96088H6.03984V0.647801C6.03984 0.350266 5.79828 0.108704 5.50065 0.108704C5.20311 0.108704 4.96155 0.350266 4.96155 0.647801V4.96088H0.648473C0.350937 4.96088 0.109375 5.20244 0.109375 5.49998C0.109375 5.79761 0.350937 6.03917 0.648473 6.03917H4.96155V10.3521C4.96155 10.6498 5.20311 10.8913 5.50065 10.8913C5.79828 10.8913 6.03984 10.6498 6.03984 10.3521V6.03917H10.3528C10.6505 6.03917 10.892 5.79761 10.892 5.49998C10.892 5.20244 10.6505 4.96088 10.3528 4.96088Z" fill="#242424"/>
</svg>
