<svg width="24" height="22" viewBox="0 0 24 22" fill="none" xmlns="http://www.w3.org/2000/svg">
<path d="M22.0961 2.08774C20.8537 0.741467 19.149 0 17.2956 0C15.9102 0 14.6415 0.437599 13.5245 1.30054C12.9609 1.73613 12.4503 2.26904 12 2.89105C11.5499 2.26922 11.0391 1.73613 10.4753 1.30054C9.35852 0.437599 8.08978 0 6.70441 0C4.85101 0 3.14612 0.741467 1.90375 2.08774C0.676208 3.41829 0 5.23601 0 7.2063C0 9.23422 0.756409 11.0905 2.38037 13.0484C3.83313 14.7997 5.92108 16.5776 8.33899 18.6362C9.16461 19.3393 10.1005 20.1362 11.0722 20.985C11.3289 21.2097 11.6583 21.3333 12 21.3333C12.3415 21.3333 12.6711 21.2097 12.9274 20.9854C13.8992 20.1363 14.8356 19.3391 15.6616 18.6357C18.0791 16.5774 20.1671 14.7997 21.6198 13.0482C23.2438 11.0905 24 9.23422 24 7.20612C24 5.23601 23.3238 3.41829 22.0961 2.08774Z" fill="#FFB800"/>
</svg>
