<svg width="50" height="50" viewBox="0 0 50 50" fill="none" xmlns="http://www.w3.org/2000/svg">
<path d="M44.6651 9.56413H46.21C46.7489 9.56413 47.1859 9.12712 47.1859 8.58821C47.1859 8.04931 46.7489 7.61229 46.21 7.61229H42.5015C41.9626 7.61229 41.5256 8.04931 41.5256 8.58821V12.2967C41.5256 12.8356 41.9626 13.2726 42.5015 13.2726C43.0404 13.2726 43.4774 12.8356 43.4774 12.2967V11.2229C46.4386 15.1872 48.0482 19.9972 48.0482 25C48.0482 37.7088 37.7088 48.0482 25 48.0482C12.2912 48.0482 1.95184 37.7088 1.95184 25C1.95184 12.2912 12.2912 1.95184 25 1.95184C25.9399 1.95184 26.8859 2.00894 27.8118 2.12146C28.3461 2.18607 28.8334 1.80555 28.8984 1.27046C28.9635 0.735455 28.5825 0.24886 28.0474 0.183864C27.0436 0.0618735 26.0184 0 25 0C18.3223 0 12.0441 2.60044 7.32234 7.32234C2.60044 12.0441 0 18.3223 0 25C0 31.6777 2.60044 37.9559 7.32234 42.6777C12.0441 47.3996 18.3223 50 25 50C31.6777 50 37.9559 47.3996 42.6777 42.6777C47.3996 37.9559 50 31.6777 50 25C50 19.3649 48.1174 13.9552 44.6651 9.56413Z" fill="#E92424"/>
<path d="M10.5864 14.7376C10.131 14.4493 9.52814 14.585 9.23976 15.0401C7.01182 18.5589 6.02556 22.7907 6.46267 26.9561C6.90623 31.1832 8.80879 35.1694 11.8199 38.1806C15.4537 41.8145 20.2271 43.6314 25.0005 43.6314C29.7739 43.6314 34.5472 41.8146 38.1811 38.1806C45.4489 30.9128 45.4489 19.0872 38.1811 11.8195C35.1746 8.81307 31.1949 6.91119 26.9748 6.46422C22.8172 6.02359 18.59 7.00215 15.0726 9.21915C14.6166 9.50656 14.4801 10.1092 14.7674 10.5651C15.0548 11.0212 15.6574 11.1577 16.1134 10.8704C22.7436 6.69152 31.2504 7.64919 36.8009 13.1996C43.3076 19.7064 43.3076 30.2936 36.8009 36.8004C30.2942 43.3072 19.7068 43.3072 13.2001 36.8004C7.72639 31.3266 6.75438 22.6143 10.889 16.0844C11.1772 15.6289 11.0418 15.026 10.5864 14.7376Z" fill="#E92424"/>
<path d="M37.6869 25.9917H38.8904C39.4293 25.9917 39.8663 25.5547 39.8663 25.0158C39.8663 24.4769 39.4293 24.0399 38.8904 24.0399H37.6869C37.148 24.0399 36.7109 24.4769 36.7109 25.0158C36.7109 25.5547 37.1479 25.9917 37.6869 25.9917Z" fill="#E92424"/>
<path d="M10.1348 24.9841C10.1348 25.523 10.5718 25.96 11.1107 25.96H12.3142C12.8531 25.96 13.2901 25.523 13.2901 24.9841C13.2901 24.4452 12.8531 24.0082 12.3142 24.0082H11.1107C10.5718 24.0082 10.1348 24.4451 10.1348 24.9841Z" fill="#E92424"/>
<path d="M25.9928 12.313V11.1095C25.9928 10.5706 25.5558 10.1336 25.0169 10.1336C24.478 10.1336 24.041 10.5706 24.041 11.1095V12.313C24.041 12.8519 24.478 13.2889 25.0169 13.2889C25.5558 13.2889 25.9928 12.8519 25.9928 12.313Z" fill="#E92424"/>
<path d="M24.0078 37.6871V38.8906C24.0078 39.4295 24.4448 39.8665 24.9837 39.8665C25.5226 39.8665 25.9596 39.4295 25.9596 38.8906V37.6871C25.9596 37.1482 25.5226 36.7112 24.9837 36.7112C24.4448 36.7112 24.0078 37.1481 24.0078 37.6871Z" fill="#E92424"/>
<path d="M20.1075 18.7281C19.7263 18.3471 19.1085 18.3471 18.7272 18.7281C18.3461 19.1092 18.3461 19.7271 18.7272 20.1083L22.0347 23.4158C21.7813 23.8882 21.6371 24.4276 21.6371 25C21.6371 26.8539 23.1453 28.3621 24.9992 28.3621C26.8531 28.3621 28.3612 26.8539 28.3612 25C28.3612 24.4276 28.217 23.8882 27.9637 23.4158L34.6373 16.7422C35.0184 16.3611 35.0184 15.7431 34.6373 15.3619C34.2561 14.9809 33.6383 14.9809 33.2571 15.3619L26.5834 22.0356C26.1111 21.7821 25.5717 21.638 24.9992 21.638C24.4267 21.638 23.8873 21.7822 23.415 22.0356L20.1075 18.7281ZM26.4094 25C26.4094 25.7776 25.7768 26.4102 24.9992 26.4102C24.2216 26.4102 23.589 25.7776 23.589 25C23.589 24.2224 24.2216 23.5898 24.9992 23.5898C25.7768 23.5898 26.4094 24.2224 26.4094 25Z" fill="#E92424"/>
<path d="M13.1991 13.199C13.3816 13.0175 13.4859 12.7657 13.4859 12.5091C13.4859 12.2524 13.3816 12.0016 13.1991 11.8191C13.0176 11.6377 12.7667 11.5331 12.5091 11.5331C12.2525 11.5331 12.0007 11.6376 11.8191 11.8191C11.6377 12.0006 11.5332 12.2524 11.5332 12.5091C11.5332 12.7667 11.6376 13.0175 11.8191 13.199C12.0007 13.3805 12.2525 13.485 12.5091 13.485C12.7667 13.485 13.0176 13.3805 13.1991 13.199Z" fill="#E92424"/>
<path d="M31.7591 2.91577C32.0169 2.91577 32.2687 2.81223 32.4501 2.62983C32.6316 2.44831 32.7361 2.1974 32.7361 1.93985C32.7361 1.68318 32.6317 1.43139 32.4501 1.24987C32.2687 1.06845 32.0169 0.963928 31.7591 0.963928C31.5025 0.963928 31.2507 1.06835 31.0692 1.24987C30.8877 1.43139 30.7832 1.68318 30.7832 1.93985C30.7832 2.19749 30.8876 2.44831 31.0692 2.62983C31.2507 2.81223 31.5025 2.91577 31.7591 2.91577Z" fill="#E92424"/>
</svg>
