<svg width="60" height="60" viewBox="0 0 60 60" fill="none" xmlns="http://www.w3.org/2000/svg">
<g clip-path="url(#clip0)">
<path d="M56.8157 18.5126H46.6409C44.885 18.5126 43.4565 19.9418 43.4565 21.6987V33.4097H39.6507C39.8623 32.6408 39.9407 31.7339 39.8892 30.6785V30.6784C39.8066 26.2184 38.9973 22.4595 37.4836 19.5061C36.3082 17.2131 34.9365 15.8384 33.7595 15.0165C35.141 13.5961 35.9398 11.5754 35.9398 9.24492C35.9398 5.05184 32.5949 1.64062 28.4836 1.64062C24.3723 1.64062 21.0274 5.05184 21.0274 9.24492C21.0274 9.73043 21.4209 10.1238 21.9063 10.1238H22.5035C22.4486 10.4555 22.4193 10.7934 22.4193 11.1367C22.4193 14.0917 24.5307 16.5614 27.3224 17.1149C27.0298 18.2014 26.8843 19.4827 26.8849 20.9381L24.6928 22.8236L19.359 23.2549L13.2063 21.221C12.6424 21.0335 12.0033 20.8216 11.4488 21.2215C10.9023 21.6158 10.9023 22.3062 10.9023 22.5329V27.1073C10.9023 27.5929 11.2958 27.9863 11.7812 27.9863H12.8276L11.2227 33.532C11.0878 33.9982 11.3564 34.4857 11.8227 34.6206C12.2892 34.7562 12.7764 34.4869 12.9114 34.0207L14.6577 27.9863H17.1564C14.0486 37.4634 15.8218 43.7895 18.5475 50.1915H16.9676L10.3871 42.8338L11.7786 38.0268C11.9136 37.5605 11.645 37.0731 11.1788 36.9382C10.7125 36.8033 10.2251 37.0719 10.0901 37.5381L8.75918 42.1362C4.64285 42.0675 0.960822 44.9055 0.0225013 48.9887C-0.0861315 49.4617 0.209064 49.9332 0.681915 50.042L1.92961 50.3291C1.61086 53.6399 3.79113 56.7635 7.11621 57.5289C7.62117 57.6452 8.13047 57.7027 8.63625 57.7027C9.8836 57.7027 11.109 57.353 12.1929 56.6736C13.465 55.8765 14.4128 54.7047 14.9257 53.3197L15.9102 53.5463C16.2035 53.6141 16.4817 53.6484 16.7597 53.4988C17.0183 53.3596 17.1902 53.1082 17.2547 52.8245C17.3166 52.5368 17.3637 52.2444 17.3964 51.9493H35.7782C36.366 55.6041 39.4756 58.359 43.1893 58.359C46.9031 58.359 50.0128 55.6041 50.6006 51.9493H51.2714C51.2714 51.9493 51.4045 51.9509 51.4349 51.9509C51.6863 51.9509 52.0493 51.923 52.3474 51.6197C52.4966 51.4679 52.6717 51.1964 52.6582 50.765C52.6335 49.9397 52.5096 49.1422 52.2982 48.3843C52.9983 44.1341 52.3247 41.5455 51.3261 39.5197C51.9574 39.1059 52.376 38.393 52.376 37.583V35.1674H56.8154C58.5713 35.1674 59.9998 33.7382 59.9998 31.9813V21.6986C60 19.9418 58.5716 18.5126 56.8157 18.5126ZM11.2595 55.1844C10.1344 55.8895 8.80313 56.1137 7.51078 55.8162H7.51067C5.13199 55.2687 3.54504 53.0875 3.6607 50.7289L13.1943 52.9232C12.7998 53.8519 12.1324 54.6374 11.2595 55.1844ZM15.6573 51.6845L1.98563 48.5385C3.04067 45.6493 5.87988 43.7368 8.98336 43.9014L15.6807 51.3898C15.6749 51.4886 15.6672 51.5868 15.6573 51.6845ZM28.9329 36.3687C28.6778 37.0416 28.6778 37.8711 28.6778 39.0195V42.3361H25.4595V37.7859C25.4595 32.6416 28.267 31.7249 29.527 31.5736H38.1437C38.109 32.7411 37.8456 33.5711 37.3454 34.0978C36.7625 34.7116 35.7652 35.0107 34.2961 35.0121L31.1413 35.0154C30.0163 35.0155 29.2733 35.4707 28.9329 36.3687ZM28.6778 44.0938V46.1924C28.6698 46.1924 28.6616 46.1924 28.6532 46.1924H22.4102C22.4804 45.5415 22.6832 45.0379 23.0161 44.6893C23.5113 44.1711 24.2088 44.0938 24.5805 44.0938H28.6778ZM38.1049 29.8159H30.1119C29.7909 28.8059 29.5048 27.6998 29.2695 26.5631L31.6996 24.9858C33.0261 24.1243 33.7163 22.9071 33.593 21.6461C33.4838 20.5282 32.7238 19.5296 31.6569 19.1023C30.6826 18.712 29.6339 18.8346 28.7071 19.4272C28.7835 18.5865 28.9257 17.8361 29.1315 17.199C29.5062 17.1604 29.8782 17.0871 30.2436 16.9797C30.9874 16.8069 31.6747 16.5316 32.2952 16.1666C33.988 17.1779 37.7111 20.4582 38.1049 29.8159ZM22.8496 8.36613C23.2641 5.55785 25.6327 3.39855 28.4836 3.39855C31.6256 3.39855 34.182 6.02133 34.182 9.24504C34.182 11.867 32.9247 13.9802 30.8973 14.9102V10.2857C30.8973 9.48492 30.5909 8.50266 29.1314 8.36977C29.1049 8.3673 29.0783 8.36613 29.0517 8.36613H22.8496ZM24.1772 11.1368C24.1772 10.7899 24.2167 10.4511 24.2944 10.1239H29.0086C29.0629 10.1298 29.1025 10.1361 29.1308 10.1419C29.1354 10.1745 29.1394 10.2213 29.1394 10.2857V15.4274C28.93 15.4582 28.7193 15.4738 28.5087 15.4739C28.5067 15.4739 28.5047 15.4739 28.5028 15.4739C26.1173 15.4717 24.1772 13.527 24.1772 11.1368ZM23.0378 24.7212L25.1195 24.5528C25.305 24.5379 25.4809 24.4644 25.6221 24.3431L29.3791 21.1117L29.3797 21.1111C29.743 20.7981 30.1308 20.6375 30.5084 20.6375C30.6764 20.6375 30.8425 20.6694 31.0034 20.7339C31.4678 20.9198 31.7975 21.345 31.8437 21.8168C31.9017 22.4106 31.5105 23.0125 30.7426 23.5112L26.5561 26.2286H23.038V24.7212H23.0378ZM19.3234 25.0216L21.28 24.8634V26.2288H19.0064C18.7117 26.2288 18.6398 25.9839 18.6314 25.7784C18.6266 25.662 18.6376 25.0779 19.3234 25.0216ZM17.2432 24.4148C16.9785 24.8489 16.8548 25.3567 16.8751 25.8504C16.8804 25.9782 16.8967 26.1014 16.9194 26.2214C16.9194 26.2239 16.918 26.2263 16.9185 26.2287H12.6604V22.892L17.2466 24.408C17.2452 24.4104 17.2445 24.4126 17.2432 24.4148ZM19.0113 27.9865H26.8161C26.9859 27.9865 27.1522 27.9373 27.2946 27.8448L27.6925 27.5865C27.8838 28.4324 28.1018 29.2555 28.3392 30.0329C26.5467 30.562 23.7015 32.2719 23.7015 37.7858V42.4242C23.0849 42.5487 22.3554 42.8363 21.7452 43.4748C21.102 44.1479 20.7346 45.06 20.6464 46.1923H18.8734C17.0868 41.0433 16.4073 35.5641 19.0113 27.9865ZM20.46 50.1886C20.1352 49.4415 19.822 48.6973 19.5272 47.9502H28.653C29.8358 47.9502 30.4355 47.4117 30.4355 46.3499V43.2149V39.8982H37.3729C37.8584 39.8982 38.2518 39.5048 38.2518 39.0193C38.2518 38.5338 37.8584 38.1404 37.3729 38.1404H30.4418C30.453 37.6412 30.485 37.2329 30.5766 36.9918C30.621 36.8745 30.6594 36.7732 31.1421 36.7732L34.2977 36.7699C36.2741 36.768 37.688 36.2899 38.6202 35.3081C38.6633 35.2627 38.7041 35.215 38.745 35.1675H44.3355H50.6186V37.5831C50.6186 37.8852 50.3639 38.1404 50.0625 38.1404H41.3127C40.8272 38.1404 40.4338 38.5338 40.4338 39.0193C40.4338 39.5048 40.8272 39.8982 41.3127 39.8982H49.5461C50.2407 41.1877 50.8656 42.7921 50.8284 45.327C49.0896 42.9116 46.2747 41.3585 43.0799 41.3585C40.5142 41.3585 38.1067 42.3649 36.3007 44.1925C34.6982 45.814 33.7357 47.9186 33.5377 50.1915L20.46 50.1886ZM43.1895 56.6014C40.4419 56.6014 38.1246 54.6218 37.564 51.9496H48.8149C48.2542 54.6216 45.9369 56.6014 43.1895 56.6014ZM49.8134 50.1918H36.5658H35.3031C35.7346 46.2176 39.0575 43.1163 43.0799 43.1163C46.6113 43.1163 49.577 45.445 50.5591 48.7048C50.5623 48.7151 50.5655 48.7254 50.569 48.7356C50.7079 49.2033 50.8059 49.6901 50.859 50.1918H49.8134ZM58.2422 31.9814C58.2422 32.769 57.6022 33.4097 56.8157 33.4097H45.2143V28.8709H58.2422V31.9814ZM58.2422 27.1131H45.2143V25.2438H58.2422V27.1131ZM58.2422 23.486H45.2143V21.6987C45.2143 20.9111 45.8543 20.2704 46.6409 20.2704H56.8157C57.6022 20.2704 58.2422 20.9112 58.2422 21.6987V23.486Z" fill="#E92424"/>
</g>
<defs>
<clipPath id="clip0">
<rect width="60" height="60" fill="white"/>
</clipPath>
</defs>
</svg>
