<svg width="50" height="50" viewBox="0 0 50 50" fill="none" xmlns="http://www.w3.org/2000/svg">
<g clip-path="url(#clip0)">
<path d="M24.9869 0C17.0655 0 10.6211 6.44453 10.6211 14.3658C10.6211 17.6586 11.7606 20.8688 13.8323 23.4191C13.8478 23.4431 13.8644 23.4664 13.8821 23.4891L24.2171 36.7297C24.4021 36.9668 24.6861 37.1054 24.9869 37.1054C25.2877 37.1054 25.5716 36.9667 25.7566 36.7295L36.1412 23.4192C36.1448 23.4146 36.1483 23.41 36.1519 23.4053C38.216 20.8582 39.3525 17.6495 39.3525 14.3658C39.3527 6.44453 32.9083 0 24.9869 0ZM34.6137 22.2016C34.6013 22.2168 34.5896 22.2321 34.5782 22.2479L24.9867 34.5417L15.492 22.3776C15.4684 22.3391 15.4418 22.3019 15.4125 22.2663C13.582 20.0508 12.574 17.245 12.574 14.3658C12.574 7.52139 18.1425 1.95293 24.9869 1.95293C31.8313 1.95293 37.3998 7.52139 37.3999 14.3658C37.3999 17.2143 36.4103 19.9971 34.6137 22.2016Z" fill="#E92424"/>
<path d="M33.4155 12.0858C33.2629 11.5685 32.7198 11.273 32.2026 11.4255C31.6853 11.5782 31.3897 12.1211 31.5424 12.6384C32.2522 15.0448 31.5924 17.6406 29.8202 19.4127C28.5293 20.7037 26.8128 21.4147 24.9871 21.4147C23.1614 21.4147 21.4449 20.7037 20.1539 19.4126C18.8629 18.1216 18.152 16.4052 18.152 14.5794C18.152 12.7537 18.8629 11.0371 20.154 9.74623C21.9279 7.97221 24.5259 7.31293 26.9341 8.02582C27.4514 8.17904 27.9945 7.88383 28.1476 7.36674C28.3007 6.84965 28.0055 6.30629 27.4885 6.15326C24.3932 5.23705 21.0537 6.08471 18.7731 8.36527C17.1134 10.0251 16.1992 12.2321 16.1992 14.5794C16.1992 16.9268 17.1133 19.1336 18.7731 20.7935C20.433 22.4534 22.6399 23.3675 24.9873 23.3675C27.3347 23.3675 29.5415 22.4534 31.2014 20.7937C33.4796 18.5155 34.328 15.1787 33.4155 12.0858Z" fill="#E92424"/>
<path d="M31.2194 8.38251L31.2021 8.36513C30.8207 7.98378 30.2024 7.98378 29.8212 8.36513C29.4398 8.74657 29.4398 9.36484 29.8212 9.74609L29.8385 9.76347C30.0291 9.95419 30.279 10.0495 30.5289 10.0495C30.7788 10.0495 31.0287 9.95419 31.2194 9.76347C31.6007 9.38212 31.6007 8.76386 31.2194 8.38251Z" fill="#E92424"/>
<path d="M40.0001 29.8149C39.4879 29.6467 38.9358 29.9249 38.7673 30.4372C38.5987 30.9494 38.8773 31.5014 39.3896 31.67C44.8085 33.4532 48.0436 36.125 48.0436 38.8169C48.0436 41.0931 45.696 43.3962 41.6026 45.1355C37.1837 47.0131 31.2872 48.0472 24.9992 48.0472C18.7112 48.0472 12.8147 47.0131 8.3958 45.1355C4.30254 43.3962 1.95488 41.0932 1.95488 38.8169C1.95488 36.9107 3.59902 34.9743 6.58457 33.3644C9.73897 31.6633 14.2063 30.4313 19.1634 29.8955C19.6995 29.8375 20.0872 29.356 20.0292 28.8197C19.9712 28.2836 19.4895 27.8955 18.9534 27.9539C13.751 28.5163 9.0291 29.8273 5.65752 31.6455C1.95762 33.6407 0.00195312 36.1205 0.00195312 38.8169C0.00195312 41.9598 2.71172 44.8421 7.63203 46.9328C12.2872 48.9107 18.4549 50 24.9993 50C31.5438 50 37.7114 48.9107 42.3664 46.9328C47.2867 44.8421 49.9965 41.9599 49.9965 38.8169C49.9965 35.1866 46.353 31.9056 40.0001 29.8149Z" fill="#E92424"/>
<path d="M35.5318 28.6443L35.4979 28.6375C34.9692 28.5309 34.4542 28.873 34.3476 29.4016C34.241 29.9302 34.5831 30.4453 35.1117 30.5519L35.1457 30.5588C35.2109 30.5718 35.2758 30.5782 35.3398 30.5782C35.795 30.5782 36.2024 30.258 36.296 29.7946C36.4025 29.266 36.0605 28.7509 35.5318 28.6443Z" fill="#E92424"/>
<path d="M17.6174 32.9123C17.5116 32.3836 16.9973 32.0407 16.4683 32.1463C16.4464 32.1506 16.423 32.1561 16.4014 32.1621C15.8811 32.304 15.5744 32.8407 15.7163 33.361C15.8348 33.7954 16.2283 34.0808 16.6578 34.0808C16.7347 34.0808 16.8125 34.0717 16.8902 34.0527C17.397 33.9301 17.7206 33.4281 17.6174 32.9123Z" fill="#E92424"/>
<path d="M28.2578 31.3228C27.7196 31.2813 27.2502 31.6825 27.2081 32.2201C27.166 32.7577 27.5678 33.2277 28.1054 33.2698C34.4809 33.7688 37.8765 35.6336 37.8765 36.7878C37.8765 37.3446 36.9888 38.2905 34.4869 39.1237C31.9672 39.9629 28.5979 40.4251 24.9997 40.4251C21.4015 40.4251 18.0321 39.963 15.5125 39.1237C13.0106 38.2905 12.1229 37.3446 12.1229 36.7878C12.1229 36.2789 12.8131 35.6373 13.969 35.0718C14.4534 34.8348 14.6539 34.25 14.4169 33.7656C14.1799 33.2812 13.5951 33.0807 13.1106 33.3178C10.6802 34.507 10.1699 35.8612 10.1699 36.788C10.1699 40.458 17.6302 42.3782 24.9996 42.3782C32.369 42.3782 39.8293 40.458 39.8294 36.7879C39.8295 33.4227 33.5959 31.7407 28.2578 31.3228Z" fill="#E92424"/>
</g>
<defs>
<clipPath id="clip0">
<rect width="50" height="50" fill="white"/>
</clipPath>
</defs>
</svg>
