<svg width="50" height="50" viewBox="0 0 50 50" fill="none" xmlns="http://www.w3.org/2000/svg">
<g clip-path="url(#clip0)">
<path d="M43.8551 37.8906C44.2596 37.8906 44.5875 37.5627 44.5875 37.1582V19.5801C44.5875 18.7059 44.2468 17.8116 43.6281 17.0621L38.1962 10.4807C37.9116 10.1359 37.5845 9.84524 37.2292 9.61379C37.251 9.38997 37.2634 9.16389 37.2634 8.93567V0.732544C37.2634 0.328052 36.9355 0.00012207 36.531 0.00012207C36.1265 0.00012207 35.7986 0.328052 35.7986 0.732544C35.7986 0.732544 35.7971 9.00549 35.7965 9.04045C35.5881 9.00354 35.3766 8.9845 35.1638 8.9845H25.6911C25.0242 8.9845 24.3705 9.17161 23.7853 9.51545C23.76 9.52454 23.7349 9.53469 23.7103 9.5467L16.5705 13.0244C15.7795 13.4212 15.147 14.0867 14.7893 14.8984C14.7854 14.9073 14.7817 14.9161 14.7781 14.9251L11.8262 22.4126C11.6779 22.789 11.8626 23.2143 12.239 23.3627C12.3272 23.3975 12.418 23.4139 12.5074 23.4139C12.7994 23.4139 13.0754 23.238 13.189 22.9499L16.1352 15.4769C16.3568 14.9819 16.7442 14.5763 17.2196 14.3376L20.9919 12.5002L17.2267 17.0622C16.6629 17.7452 16.365 18.616 16.365 19.5803V44.8733C16.365 45.1678 16.3908 45.4562 16.4378 45.7372L8.89074 42.3931C7.18586 41.6377 6.4132 39.6312 7.16867 37.9202C7.17189 37.9128 7.17502 37.9053 7.17814 37.8979L11.9519 26.0342C12.1029 25.6589 11.9211 25.2323 11.5458 25.0813C11.1703 24.9303 10.744 25.1121 10.5929 25.4873L5.82336 37.34C4.7509 39.7863 5.85871 42.6517 8.29728 43.7322L17.1473 47.6536C17.1581 47.6584 17.1692 47.6619 17.1801 47.6661C18.0783 49.0697 19.6313 50 21.3943 50H39.4607C42.2398 50 44.5876 47.6522 44.5876 44.8731V40.5762C44.5876 40.1717 44.2597 39.8438 43.8552 39.8438C43.4507 39.8438 43.1228 40.1717 43.1228 40.5762V44.8731C43.1228 46.8581 41.4457 48.5352 39.4607 48.5352H21.3943C19.4288 48.5352 17.8298 46.8924 17.8298 44.8731V19.5801C17.8298 18.9514 18.007 18.4179 18.3565 17.9946L23.7884 11.4131C24.294 10.8006 24.9875 10.4492 25.6911 10.4492H35.1638C35.3018 10.4492 35.4393 10.4632 35.5751 10.4896C35.1166 12.0531 33.9809 13.3578 32.4472 14.0116C32.0461 13.3408 31.3129 12.8906 30.4762 12.8906C29.2108 12.8906 28.1813 13.9201 28.1813 15.1856C28.1813 16.451 29.2108 17.4805 30.4762 17.4805C31.6464 17.4805 32.6142 16.5998 32.7533 15.4665C34.7259 14.7204 36.2175 13.1396 36.882 11.21C36.9458 11.2741 37.0075 11.3416 37.0665 11.4131L42.4985 17.9947C42.901 18.4823 43.1228 19.0454 43.1228 19.5802V37.1583C43.1227 37.5627 43.4506 37.8906 43.8551 37.8906ZM30.4762 16.0156C30.0185 16.0156 29.6461 15.6433 29.6461 15.1856C29.6461 14.7279 30.0185 14.3555 30.4762 14.3555C30.9339 14.3555 31.3063 14.7279 31.3063 15.1856C31.3063 15.6433 30.9339 16.0156 30.4762 16.0156Z" fill="#E92424"/>
<path d="M24.1294 38.9648C24.3168 38.9648 24.5043 38.8933 24.6472 38.7503L37.1472 26.2503C37.4333 25.9642 37.4333 25.5005 37.1472 25.2145C36.8612 24.9285 36.3974 24.9285 36.1115 25.2145L23.6115 37.7145C23.1445 38.1498 23.5028 38.987 24.1294 38.9648Z" fill="#E92424"/>
<path d="M25.6914 31.25C27.4414 31.25 28.8652 29.8262 28.8652 28.0762C28.8652 26.3262 27.4414 24.9024 25.6914 24.9024H25.5938C23.8438 24.9024 22.4199 26.3262 22.4199 28.0762C22.4199 29.8262 23.8438 31.25 25.5938 31.25H25.6914ZM23.8848 28.0762C23.8848 27.1339 24.6515 26.3672 25.5938 26.3672H25.6914C26.6337 26.3672 27.4004 27.1339 27.4004 28.0762C27.4004 29.0185 26.6337 29.7852 25.6914 29.7852H25.5938C24.6515 29.7852 23.8848 29.0185 23.8848 28.0762Z" fill="#E92424"/>
<path d="M35.1641 38.9649H35.2617C37.0117 38.9649 38.4355 37.541 38.4355 35.791C38.4355 34.041 37.0117 32.6172 35.2617 32.6172H35.1641C33.4141 32.6172 31.9902 34.041 31.9902 35.791C31.9902 37.541 33.4141 38.9649 35.1641 38.9649ZM35.1641 34.0821H35.2617C36.204 34.0821 36.9707 34.8488 36.9707 35.791C36.9707 36.7333 36.204 37.5 35.2617 37.5H35.1641C34.2218 37.5 33.4551 36.7333 33.4551 35.791C33.4551 34.8488 34.2218 34.0821 35.1641 34.0821Z" fill="#E92424"/>
</g>
<defs>
<clipPath id="clip0">
<rect width="50" height="50" fill="white"/>
</clipPath>
</defs>
</svg>
