<svg width="20" height="20" viewBox="0 0 20 20" fill="none" xmlns="http://www.w3.org/2000/svg">
<path d="M6.22034 15.6674C5.09599 15.6674 4.18457 16.5789 4.18457 17.7032C4.18457 18.8275 5.09603 19.7389 6.22034 19.7389C7.34468 19.7389 8.2561 18.8275 8.2561 17.7032C8.25614 16.5789 7.34468 15.6674 6.22034 15.6674ZM6.22034 18.8342C5.59571 18.8342 5.08936 18.3279 5.08936 17.7032C5.08936 17.0786 5.59571 16.5723 6.22034 16.5723C6.84496 16.5723 7.35131 17.0786 7.35131 17.7032C7.35135 18.3279 6.84496 18.8342 6.22034 18.8342Z" fill="black"/>
<path d="M14.816 15.6674C13.6917 15.6674 12.7803 16.5789 12.7803 17.7032C12.7803 18.8275 13.6917 19.7389 14.816 19.7389C15.9403 19.7389 16.8518 18.8275 16.8518 17.7032C16.8518 16.5789 15.9404 15.6674 14.816 15.6674ZM14.816 18.8342C14.1914 18.8342 13.6851 18.3279 13.6851 17.7032C13.6851 17.0786 14.1914 16.5723 14.816 16.5723C15.4407 16.5723 15.947 17.0786 15.947 17.7032C15.9471 18.3279 15.4407 18.8342 14.816 18.8342Z" fill="black"/>
<path d="M19.4078 3.79208C19.3136 3.68916 19.1847 3.62474 19.0459 3.6111L4.3204 3.40752L3.91324 2.16342C3.62641 1.33175 2.84761 0.770295 1.96792 0.760986H0.452397C0.202538 0.760986 0 0.963524 0 1.21338C0 1.46324 0.202538 1.66578 0.452397 1.66578H1.96792C2.45981 1.67665 2.89294 1.99249 3.05369 2.45749L5.92641 11.1209L5.70023 11.6411C5.44795 12.2917 5.52372 13.0239 5.90381 13.609C6.28027 14.1837 6.9136 14.5384 7.60031 14.5591H16.3994C16.6493 14.5591 16.8518 14.3565 16.8518 14.1067C16.8518 13.8568 16.6493 13.6543 16.3994 13.6543H7.60027C7.21247 13.6446 6.85549 13.4406 6.65023 13.1114C6.44726 12.7862 6.40556 12.3857 6.53714 12.0256L6.71812 11.6185L16.2411 10.6232C17.2871 10.508 18.1475 9.74718 18.39 8.72311L19.4757 4.17654C19.5247 4.04562 19.4987 3.89837 19.4078 3.79208ZM17.5078 8.51958C17.3609 9.1788 16.8012 9.66505 16.128 9.71844L6.71812 10.6911L4.61446 4.31232L18.4804 4.51589L17.5078 8.51958Z" fill="black"/>
</svg>
