<svg width="19" height="19" viewBox="0 0 19 19" fill="none" xmlns="http://www.w3.org/2000/svg">
<path d="M5.14616 17.0417H3.56283C3.34433 17.0417 3.16699 16.8643 3.16699 16.6458C3.16699 16.4273 3.34433 16.25 3.56283 16.25H5.14616C5.36466 16.25 5.54199 16.4273 5.54199 16.6458C5.54199 16.8643 5.36466 17.0417 5.14616 17.0417Z" fill="black"/>
<path d="M18.0109 17.0417H17.0213C16.8028 17.0417 16.6254 16.8644 16.6254 16.6459C16.6254 16.4274 16.8028 16.2501 17.0213 16.2501H17.6823L18.2159 13.4064C18.2088 11.9513 16.9659 10.7084 15.4379 10.7084H12.8389L11.5794 16.2501H13.8546C14.0731 16.2501 14.2504 16.4274 14.2504 16.6459C14.2504 16.8644 14.0731 17.0417 13.8546 17.0417H11.0838C10.9634 17.0417 10.8494 16.9871 10.7742 16.8929C10.699 16.7995 10.6705 16.676 10.6974 16.5588L12.1367 10.2255C12.1779 10.0442 12.3378 9.91675 12.523 9.91675H15.4379C17.4021 9.91675 19.0004 11.5151 19.0004 13.4792L18.3996 16.7187C18.3647 16.9064 18.2016 17.0417 18.0109 17.0417Z" fill="black"/>
<path d="M15.4372 18.6251C14.3463 18.6251 13.458 17.7376 13.458 16.6459C13.458 15.5542 14.3463 14.6667 15.4372 14.6667C16.5281 14.6667 17.4163 15.5542 17.4163 16.6459C17.4163 17.7376 16.5281 18.6251 15.4372 18.6251ZM15.4372 15.4584C14.7825 15.4584 14.2497 15.9912 14.2497 16.6459C14.2497 17.3006 14.7825 17.8334 15.4372 17.8334C16.0919 17.8334 16.6247 17.3006 16.6247 16.6459C16.6247 15.9912 16.0919 15.4584 15.4372 15.4584Z" fill="black"/>
<path d="M6.72917 18.6251C5.63825 18.6251 4.75 17.7376 4.75 16.6459C4.75 15.5542 5.63825 14.6667 6.72917 14.6667C7.82008 14.6667 8.70833 15.5542 8.70833 16.6459C8.70833 17.7376 7.82008 18.6251 6.72917 18.6251ZM6.72917 15.4584C6.07446 15.4584 5.54167 15.9912 5.54167 16.6459C5.54167 17.3006 6.07446 17.8334 6.72917 17.8334C7.38388 17.8334 7.91667 17.3006 7.91667 16.6459C7.91667 15.9912 7.38388 15.4584 6.72917 15.4584Z" fill="black"/>
<path d="M5.14551 9.91667H1.97884C1.76034 9.91667 1.58301 9.73934 1.58301 9.52084C1.58301 9.30233 1.76034 9.125 1.97884 9.125H5.14551C5.36401 9.125 5.54134 9.30233 5.54134 9.52084C5.54134 9.73934 5.36401 9.91667 5.14551 9.91667Z" fill="black"/>
<path d="M5.14616 12.2917H1.18783C0.969325 12.2917 0.791992 12.1143 0.791992 11.8958C0.791992 11.6773 0.969325 11.5 1.18783 11.5H5.14616C5.36466 11.5 5.54199 11.6773 5.54199 11.8958C5.54199 12.1143 5.36466 12.2917 5.14616 12.2917Z" fill="black"/>
<path d="M5.14583 14.6667H0.395833C0.177333 14.6667 0 14.4893 0 14.2708C0 14.0523 0.177333 13.875 0.395833 13.875H5.14583C5.36433 13.875 5.54167 14.0523 5.54167 14.2708C5.54167 14.4893 5.36433 14.6667 5.14583 14.6667Z" fill="black"/>
<path d="M11.0837 17.0417H8.31283C8.09433 17.0417 7.91699 16.8644 7.91699 16.6459C7.91699 16.4274 8.09433 16.2501 8.31283 16.2501H10.7678L12.5665 8.33341H3.56283C3.34433 8.33341 3.16699 8.15608 3.16699 7.93758C3.16699 7.71908 3.34433 7.54175 3.56283 7.54175H13.0628C13.1832 7.54175 13.2972 7.59637 13.3724 7.69058C13.4476 7.784 13.4761 7.9075 13.4492 8.02466L11.47 16.733C11.4288 16.9143 11.2681 17.0417 11.0837 17.0417Z" fill="black"/>
</svg>
