<svg width="16" height="16" viewBox="0 0 16 16" fill="none" xmlns="http://www.w3.org/2000/svg">
<path d="M7.72927 15.0832H3.5561C2.42197 15.0832 1.50177 14.1596 1.50177 13.0289V2.97114C1.50177 1.83701 2.42537 0.916808 3.5561 0.916808H7.79719C8.05185 0.916808 8.25559 0.713073 8.25559 0.458404C8.25559 0.203735 8.05185 0 7.79719 0H3.5561C1.91603 0 0.584961 1.33447 0.584961 2.97114V13.0289C0.584961 14.6689 1.91943 16 3.5561 16H7.72927C7.98394 16 8.18768 15.7963 8.18768 15.5416C8.18768 15.2869 7.98055 15.0832 7.72927 15.0832Z" fill="#E92424"/>
<path d="M15.2812 7.67748L12.3678 4.76406C12.1878 4.5841 11.8992 4.5841 11.7193 4.76406C11.5393 4.94403 11.5393 5.23266 11.7193 5.41262L13.8517 7.54505H4.55118C4.29651 7.54505 4.09277 7.74879 4.09277 8.00346C4.09277 8.25813 4.29651 8.46186 4.55118 8.46186H13.8517L11.7193 10.5943C11.5393 10.7743 11.5393 11.0629 11.7193 11.2429C11.8075 11.3311 11.9264 11.3787 12.0418 11.3787C12.1573 11.3787 12.2761 11.3345 12.3644 11.2429L15.2778 8.32944C15.4612 8.14607 15.4612 7.85405 15.2812 7.67748Z" fill="#E92424"/>
</svg>
