<svg width="16" height="16" viewBox="0 0 16 16" fill="none" xmlns="http://www.w3.org/2000/svg">
<g clip-path="url(#clip0)">
<path d="M13.9853 8.17419C13.7352 8.10721 13.4782 8.2556 13.4112 8.50564C13.3442 8.75568 13.4926 9.01273 13.7426 9.07973L15.0343 9.42584C15.1594 9.45934 15.2861 9.439 15.39 9.37901C15.4939 9.31903 15.5749 9.21939 15.6084 9.09439C15.6754 8.84435 15.527 8.5873 15.277 8.5203L13.9853 8.17419Z" fill="black"/>
<path d="M11.7586 4.98047C11.8625 4.9205 11.9435 4.82085 11.977 4.69585L12.3231 3.40414C12.3902 3.1541 12.2418 2.89705 11.9917 2.83005C11.7416 2.76304 11.4846 2.91144 11.4176 3.1615L11.0715 4.45321C11.0045 4.70325 11.1529 4.9603 11.4029 5.0273C11.528 5.0608 11.6547 5.04046 11.7586 4.98047Z" fill="black"/>
<path d="M13.9899 5.31151L12.8317 5.98016C12.6075 6.10959 12.5307 6.39629 12.6602 6.62048C12.7896 6.84467 13.0763 6.92149 13.3005 6.79205L14.4586 6.12341C14.6828 5.99397 14.7596 5.70728 14.6302 5.48308C14.5007 5.25889 14.2141 5.18207 13.9899 5.31151Z" fill="black"/>
<path d="M8.07149 1.56964C7.90739 1.57177 7.75726 1.66243 7.67891 1.80659L4.77163 7.15762L2.77504 8.31036C2.33561 8.53401 2.01576 8.91681 1.87359 9.38972C1.82066 9.56571 1.79564 9.74803 1.79699 9.93017L0.808887 10.5006C0.18109 10.8631 -0.0347748 11.6687 0.327684 12.2965L1.35875 14.0824C1.72121 14.7102 2.52683 14.926 3.15463 14.5636L4.14076 13.9942C4.46212 14.1856 4.83614 14.2822 5.2159 14.2697L5.21592 17.4296C5.21592 17.5508 5.26446 17.667 5.35071 17.7522C5.43697 17.8374 5.55374 17.8845 5.67495 17.883L7.9689 17.8547C8.04932 17.8538 8.12465 17.8319 8.18974 17.7943C8.32554 17.7159 8.41678 17.5691 8.41676 17.4013L8.41673 12.8892L14.1249 12.9611C14.2079 12.9622 14.2879 12.9405 14.3573 12.9004C14.4243 12.8617 14.4814 12.8059 14.5219 12.7369C14.6043 12.5962 14.6048 12.4221 14.5233 12.2809L8.47006 1.79637C8.38801 1.65426 8.23557 1.56755 8.07149 1.56964ZM2.70116 13.7782C2.50645 13.8906 2.2566 13.8236 2.14419 13.6289L1.11312 11.8431C1.0007 11.6483 1.06765 11.3985 1.26236 11.2861L2.03873 10.8378C2.04206 10.8437 2.04504 10.8498 2.04843 10.8557L3.46694 13.3126C3.47034 13.3185 3.47407 13.3241 3.47753 13.3299L2.70116 13.7782ZM2.83386 10.4022C2.70112 10.1723 2.66767 9.89843 2.74209 9.6509C2.81294 9.41531 2.97297 9.225 3.19322 9.11522C3.20143 9.11111 4.94313 8.10585 4.94313 8.10585L7.3438 12.2639L5.63098 13.2528C5.12575 13.4981 4.52227 13.3266 4.25236 12.8591L2.83386 10.4022ZM7.50984 16.9534L6.12285 16.9705L6.12283 14.0696C6.12284 14.0521 6.12161 14.0349 6.11968 14.018L7.50982 13.2154L7.50984 16.9534ZM13.3394 12.0442L8.22697 11.9798L5.62885 7.47966L8.08937 2.95086L13.3394 12.0442Z" fill="black"/>
</g>
<defs>
<clipPath id="clip0">
<rect width="16" height="16" fill="white"/>
</clipPath>
</defs>
</svg>
