<svg width="14" height="14" viewBox="0 0 14 14" fill="none" xmlns="http://www.w3.org/2000/svg">
<g clip-path="url(#clip0)">
<path d="M13.8292 0.170601C13.6014 -0.0572001 13.232 -0.0572001 13.0042 0.170601L0.170851 13.004C-0.0569502 13.2318 -0.0569502 13.6011 0.170851 13.8289C0.398651 14.0567 0.768011 14.0567 0.995812 13.8289L13.8292 0.995562C14.057 0.767761 14.057 0.398429 13.8292 0.170601Z" fill="black"/>
<path d="M11.6673 9.33332C10.3786 9.33332 9.33398 10.3779 9.33398 11.6666C9.33398 12.9554 10.3785 14 11.6673 14C12.9561 14 14.0006 12.9554 14.0006 11.6667C14.0006 10.3779 12.956 9.33332 11.6673 9.33332ZM11.6673 12.8333C11.0229 12.8333 10.5006 12.3111 10.5006 11.6666C10.5006 11.0222 11.0229 10.5 11.6673 10.5C12.3117 10.5 12.834 11.0222 12.834 11.6667C12.834 12.3111 12.3117 12.8333 11.6673 12.8333Z" fill="black"/>
<path d="M2.33332 4.66668C3.62206 4.66668 4.66665 3.62209 4.66665 2.33335C4.66665 1.04461 3.62209 0 2.33332 0C1.04456 0 0 1.04459 0 2.33332C0 3.62206 1.04459 4.66668 2.33332 4.66668ZM2.33332 1.16668C2.97773 1.16668 3.5 1.68891 3.5 2.33335C3.5 2.97779 2.97776 3.5 2.33332 3.5C1.68889 3.5 1.16665 2.97776 1.16665 2.33332C1.16665 1.68889 1.68891 1.16668 2.33332 1.16668Z" fill="black"/>
</g>
<defs>
<clipPath id="clip0">
<rect width="14" height="14" fill="white"/>
</clipPath>
</defs>
</svg>
