<svg width="33" height="33" viewBox="0 0 33 33" fill="none" xmlns="http://www.w3.org/2000/svg">
<path d="M29.5716 14.47C29.1301 14.3171 28.6685 14.2303 28.2016 14.2122C28.1088 14.205 27.9953 14.1967 27.9036 14.1854C27.9495 14.1245 28.0031 14.0575 28.0479 14.0008C28.4352 13.5692 28.7142 13.0517 28.8621 12.491C29.1612 11.185 29.2277 8.72698 27.5803 7.79885C27.219 7.60506 26.8218 7.48729 26.4133 7.45279C26.0047 7.4183 25.5935 7.46781 25.2048 7.59828C24.1635 7.9109 23.2827 8.61261 22.7452 9.55765C22.1585 10.692 22.473 11.8455 22.7262 12.7721C22.8809 13.3454 23.0304 13.8868 22.8453 14.0611C22.6303 14.2674 21.9888 14.0946 21.368 13.925C21.1736 13.8734 20.9741 13.8219 20.774 13.7703C20.4469 13.0475 19.9185 12.4342 19.252 12.0039C18.5854 11.5735 17.809 11.3444 17.0156 11.3438C17.0012 11.3438 16.9878 11.3438 16.9733 11.3438C16.9233 10.9516 16.8249 10.5671 16.6805 10.1991C15.6523 7.58848 12.7653 6.26848 10.8714 6.83103C10.3294 7.00015 9.84436 7.31518 9.46945 7.74162C9.04751 7.13724 8.50108 6.63019 7.86689 6.25456C7.14682 5.87293 6.35578 5.64391 5.54321 5.58181C4.73063 5.51971 3.91398 5.62585 3.14428 5.89362C2.71488 6.01093 2.3156 6.2189 1.97334 6.50353C1.63109 6.78815 1.3538 7.14281 1.16015 7.54362C0.679075 8.76153 1.57265 10.1439 3.19687 12.6535C3.37012 12.9216 3.55111 13.184 3.73054 13.448C3.30256 13.6066 2.88672 13.7962 2.48634 14.0152C1.93475 14.2813 1.48961 14.7264 1.22358 15.278C1.06002 15.8418 0.994955 16.4297 1.03125 17.0157C1.03575 20.9801 2.61261 24.7809 5.41589 27.5841C8.21917 30.3874 12.0199 31.9643 15.9844 31.9688H17.0156C20.9801 31.9643 24.7808 30.3874 27.5841 27.5841C30.3874 24.7809 31.9642 20.9801 31.9688 17.0157C31.9604 16.9359 31.9417 16.8575 31.9131 16.7826C31.4555 15.7417 30.6181 14.9146 29.5716 14.47ZM21.1004 14.9258C21.9981 15.1692 22.9252 15.4208 23.5599 14.8098C24.1864 14.2096 23.9497 13.3423 23.7208 12.5034C23.4919 11.6645 23.2593 10.8106 23.661 10.0341C24.0698 9.33786 24.7268 8.82208 25.5002 8.59034C25.7568 8.50228 26.0284 8.46675 26.2989 8.48589C26.5695 8.50502 26.8334 8.57842 27.075 8.70171C28.1129 9.28643 28.1114 11.1514 27.8566 12.2626C27.7404 12.6695 27.5304 13.0435 27.2436 13.3547C26.961 13.7079 26.6093 14.1467 26.8666 14.6675C27.1152 15.164 27.6519 15.2043 28.1253 15.2393C28.4939 15.2514 28.8587 15.3174 29.2081 15.4353C29.7438 15.6538 30.2041 16.0239 30.5327 16.5H25.3687C25.4873 15.8488 25.6178 15.197 25.7684 14.5556C26.0494 13.3578 26.3918 12.159 26.7857 10.9932L25.8091 10.6632C25.4043 11.8599 25.0527 13.0902 24.7639 14.3194C24.5953 15.0387 24.4499 15.7699 24.321 16.5H21.0055C21.1444 15.9873 21.1766 15.4515 21.1004 14.9258ZM17.5312 13.4063V12.4214C18.1065 12.5196 18.6424 12.7783 19.0771 13.1676C19.5119 13.5569 19.8279 14.0611 19.9887 14.6221L18.9152 14.98L19.2411 15.9597L20.0985 15.674C20.0818 15.9558 20.0254 16.2339 19.931 16.5H14.1003C13.9815 16.1692 13.9212 15.8203 13.9219 15.4688C13.9221 15.3655 13.9274 15.2622 13.9379 15.1594L14.7902 15.4435L15.1161 14.4638L14.2147 14.1632C14.4267 13.71 14.7453 13.3148 15.1433 13.0115C15.5413 12.7081 16.0068 12.5057 16.5 12.4214V13.4063H17.5312ZM11.1659 7.82154C12.5715 7.40285 14.9175 8.53981 15.7214 10.5796C15.8361 10.8715 15.9139 11.1765 15.9529 11.4876C14.9034 11.763 14.0056 12.4428 13.456 13.3784C12.9064 14.3139 12.7496 15.4291 13.02 16.4799L12.9772 16.5H10.5992C10.8199 16.2706 11.0359 16.036 11.2324 15.7885C12.4508 14.2217 13.2032 12.3434 13.4032 10.3687L12.3781 10.2563C12.1962 12.0377 11.5193 13.7326 10.4239 15.1491C10.395 15.1857 10.3599 15.2177 10.3305 15.2522C11.0877 13.1055 10.9801 10.7484 10.0305 8.67954C10.3056 8.27777 10.7042 7.97657 11.1659 7.82154ZM2.11973 7.92467C2.26286 7.66494 2.45782 7.43737 2.69251 7.25608C2.92719 7.07479 3.19662 6.94363 3.48408 6.87073C4.11413 6.65356 4.78167 6.56641 5.44635 6.61453C6.11104 6.66265 6.75907 6.84506 7.35126 7.15071C9.81801 8.57487 10.3821 12.6787 9.22144 15.2584C9.1807 15.3492 9.13275 15.4327 9.08634 15.5162C8.98683 15.096 8.87494 14.6799 8.73881 14.2741C7.89632 11.8045 6.42549 9.59671 4.47098 7.86795L3.77901 8.6321C5.60171 10.2426 6.97405 12.2996 7.76119 14.601C7.96705 15.2214 8.12682 15.8561 8.23917 16.5H7.34765C6.15556 15.1067 5.05809 13.635 4.06261 12.095C2.59772 9.8299 1.84593 8.61612 2.11973 7.92364V7.92467ZM2.16562 15.6941C2.33642 15.3484 2.62414 15.0744 2.97773 14.9207C3.41314 14.6817 3.86926 14.4825 4.34053 14.3256C4.87575 15.0712 5.43176 15.796 6.00858 16.5H2.08983C2.03555 16.2298 2.0619 15.9495 2.16562 15.6941ZM17.0156 30.9375H15.9844C12.3825 30.9335 8.92207 29.5353 6.32841 27.036C3.73475 24.5368 2.20928 21.1305 2.07178 17.5313H30.9282C30.7907 21.1305 29.2652 24.5368 26.6716 27.036C24.0779 29.5353 20.6175 30.9335 17.0156 30.9375Z" fill="black"/>
<path d="M17.5312 14.4375H16.5V15.4688H17.5312V14.4375Z" fill="black"/>
<path d="M17.5312 7.21875V8.25C17.5312 8.38675 17.5856 8.5179 17.6823 8.6146C17.779 8.7113 17.9101 8.76562 18.0469 8.76562H20.1094C21.3397 8.76426 22.5193 8.2749 23.3893 7.40491C24.2593 6.53492 24.7486 5.35535 24.75 4.125V3.09375C24.75 2.957 24.6957 2.82585 24.599 2.72915C24.5023 2.63245 24.3711 2.57812 24.2344 2.57812H22.1719C20.9415 2.57949 19.762 3.06885 18.892 3.93884C18.022 4.80883 17.5326 5.9884 17.5312 7.21875ZM22.1719 3.60938H23.7188V4.125C23.7177 5.08193 23.337 5.99936 22.6604 6.67601C21.9837 7.35266 21.0663 7.73328 20.1094 7.73438H19.4391L21.9904 5.54761L21.3201 4.76489L18.5666 7.12491C18.5911 6.18471 18.9816 5.29119 19.6549 4.63458C20.3283 3.97797 21.2314 3.61013 22.1719 3.60938Z" fill="black"/>
<path d="M12.8906 4.125C12.8906 4.43094 12.9813 4.73001 13.1513 4.9844C13.3213 5.23878 13.5629 5.43704 13.8455 5.55412C14.1282 5.6712 14.4392 5.70184 14.7393 5.64215C15.0393 5.58246 15.315 5.43514 15.5313 5.2188C15.7476 5.00247 15.895 4.72684 15.9546 4.42678C16.0143 4.12671 15.9837 3.81569 15.8666 3.53304C15.7495 3.25038 15.5513 3.00879 15.2969 2.83882C15.0425 2.66885 14.7434 2.57812 14.4375 2.57812C14.0272 2.57812 13.6338 2.7411 13.3437 3.03119C13.0536 3.32129 12.8906 3.71474 12.8906 4.125ZM14.9531 4.125C14.9531 4.22698 14.9229 4.32667 14.8662 4.41146C14.8096 4.49626 14.729 4.56235 14.6348 4.60137C14.5406 4.6404 14.4369 4.65061 14.3369 4.63072C14.2369 4.61082 14.145 4.56171 14.0729 4.4896C14.0008 4.41749 13.9517 4.32561 13.9318 4.22559C13.9119 4.12557 13.9221 4.0219 13.9611 3.92768C14.0001 3.83346 14.0662 3.75293 14.151 3.69627C14.2358 3.63961 14.3355 3.60937 14.4375 3.60937C14.5743 3.60937 14.7054 3.6637 14.8021 3.7604C14.8988 3.8571 14.9531 3.98825 14.9531 4.125Z" fill="black"/>
<path d="M6.1875 2.57812C6.1875 2.88407 6.27822 3.18314 6.4482 3.43752C6.61817 3.69191 6.85976 3.89017 7.14241 4.00725C7.42506 4.12433 7.73609 4.15496 8.03615 4.09528C8.33622 4.03559 8.61184 3.88827 8.82818 3.67193C9.04451 3.4556 9.19184 3.17997 9.25152 2.87991C9.31121 2.57984 9.28058 2.26882 9.1635 1.98616C9.04642 1.70351 8.84815 1.46192 8.59377 1.29195C8.33939 1.12197 8.04032 1.03125 7.73437 1.03125C7.32412 1.03125 6.93066 1.19422 6.64057 1.48432C6.35047 1.77441 6.1875 2.16787 6.1875 2.57812ZM8.25 2.57812C8.25 2.68011 8.21976 2.7798 8.1631 2.86459C8.10644 2.94938 8.02591 3.01547 7.93169 3.0545C7.83748 3.09353 7.7338 3.10374 7.63378 3.08384C7.53376 3.06395 7.44188 3.01484 7.36977 2.94273C7.29766 2.87062 7.24855 2.77874 7.22866 2.67872C7.20876 2.5787 7.21897 2.47502 7.258 2.3808C7.29702 2.28659 7.36311 2.20606 7.44791 2.1494C7.5327 2.09274 7.63239 2.0625 7.73437 2.0625C7.87113 2.0625 8.00228 2.11682 8.09897 2.21352C8.19567 2.31022 8.25 2.44137 8.25 2.57812Z" fill="black"/>
<path d="M5.59705 22.4199L4.71533 22.9551C6.11919 25.2713 8.16461 27.1306 10.6038 28.3078L11.0524 27.3797C8.79271 26.2886 6.89781 24.5658 5.59705 22.4199Z" fill="black"/>
<path d="M12.8906 27.8438H11.8594V28.875H12.8906V27.8438Z" fill="black"/>
</svg>
