<svg width="16" height="16" viewBox="0 0 16 16" fill="none" xmlns="http://www.w3.org/2000/svg">
<path d="M7.88599 7.70726C8.94482 7.70726 9.86157 7.3275 10.6108 6.57824C11.3599 5.82909 11.7397 4.91247 11.7397 3.85351C11.7397 2.79492 11.36 1.87817 10.6107 1.12878C9.86145 0.37976 8.9447 0 7.88599 0C6.82703 0 5.9104 0.37976 5.16125 1.1289C4.41211 1.87805 4.03223 2.79479 4.03223 3.85351C4.03223 4.91247 4.41211 5.82921 5.16125 6.57836C5.91064 7.32738 6.82739 7.70726 7.88599 7.70726ZM5.82434 1.79187C6.39917 1.21704 7.07349 0.93762 7.88599 0.93762C8.69836 0.93762 9.3728 1.21704 9.94775 1.79187C10.5226 2.36682 10.8021 3.04125 10.8021 3.85351C10.8021 4.66601 10.5226 5.34032 9.94775 5.91527C9.3728 6.49022 8.69836 6.76964 7.88599 6.76964C7.07373 6.76964 6.39941 6.4901 5.82434 5.91527C5.24939 5.34044 4.96985 4.66601 4.96985 3.85351C4.96985 3.04125 5.24939 2.36682 5.82434 1.79187Z" fill="#242424"/>
<path d="M14.629 12.3032C14.6074 11.9914 14.5637 11.6513 14.4994 11.2922C14.4344 10.9304 14.3508 10.5883 14.2507 10.2757C14.1472 9.95257 14.0067 9.63348 13.8328 9.32769C13.6525 9.01031 13.4406 8.73395 13.2028 8.50653C12.9541 8.26861 12.6497 8.07733 12.2976 7.9378C11.9468 7.79901 11.558 7.7287 11.1421 7.7287C10.9788 7.7287 10.8208 7.79572 10.5157 7.99432C10.328 8.11676 10.1084 8.25836 9.86328 8.41498C9.65369 8.54852 9.36975 8.67364 9.01904 8.78692C8.67688 8.89764 8.32947 8.95379 7.98645 8.95379C7.64368 8.95379 7.29626 8.89764 6.95386 8.78692C6.60352 8.67377 6.31946 8.54864 6.11023 8.4151C5.86743 8.25995 5.64771 8.11835 5.45715 7.9942C5.15234 7.79559 4.99438 7.72858 4.83105 7.72858C4.41504 7.72858 4.02637 7.79901 3.67566 7.93793C3.32385 8.07721 3.01929 8.26849 2.77039 8.50665C2.53259 8.73419 2.32068 9.01043 2.1405 9.32769C1.9668 9.63348 1.82617 9.95245 1.72266 10.2758C1.62268 10.5884 1.53906 10.9304 1.47412 11.2922C1.40967 11.6508 1.36609 11.991 1.34448 12.3035C1.32324 12.6091 1.3125 12.9271 1.3125 13.2483C1.3125 14.0835 1.578 14.7597 2.10156 15.2583C2.61865 15.7504 3.30273 15.9999 4.13489 15.9999H11.839C12.6709 15.9999 13.355 15.7504 13.8722 15.2583C14.3959 14.7601 14.6614 14.0837 14.6614 13.2482C14.6613 12.9258 14.6504 12.6078 14.629 12.3032ZM13.2257 14.579C12.884 14.9042 12.4304 15.0623 11.8389 15.0623H4.13489C3.54321 15.0623 3.0896 14.9042 2.74805 14.5791C2.41296 14.2602 2.25012 13.8248 2.25012 13.2483C2.25012 12.9485 2.26001 12.6525 2.27979 12.3683C2.29907 12.0895 2.3385 11.7833 2.39697 11.4578C2.45471 11.1364 2.5282 10.8348 2.6156 10.5617C2.69946 10.2999 2.81384 10.0406 2.95569 9.79083C3.09106 9.55279 3.24683 9.34857 3.4187 9.18402C3.57947 9.03009 3.7821 8.90411 4.02087 8.80963C4.2417 8.72223 4.48987 8.67438 4.75928 8.66717C4.79211 8.68463 4.85059 8.71795 4.94531 8.77972C5.13806 8.90533 5.36023 9.04864 5.60583 9.2055C5.88269 9.38202 6.23938 9.54144 6.66553 9.67901C7.1012 9.81988 7.54553 9.89141 7.98657 9.89141C8.42761 9.89141 8.87207 9.81988 9.3075 9.67913C9.73401 9.54132 10.0906 9.38202 10.3678 9.20526C10.6191 9.04461 10.8351 8.90545 11.0278 8.77972C11.1226 8.71808 11.181 8.68463 11.2139 8.66717C11.4834 8.67438 11.7316 8.72223 11.9525 8.80963C12.1912 8.90411 12.3938 9.03021 12.5546 9.18402C12.7264 9.34845 12.8822 9.55267 13.0176 9.79095C13.1595 10.0406 13.274 10.3 13.3578 10.5616C13.4453 10.835 13.5189 11.1365 13.5765 11.4577C13.6349 11.7837 13.6744 12.0901 13.6937 12.3685V12.3687C13.7136 12.6518 13.7236 12.9477 13.7238 13.2483C13.7236 13.8249 13.5608 14.2602 13.2257 14.579Z" fill="#242424"/>
</svg>
