<svg width="16" height="16" viewBox="0 0 16 16" fill="none" xmlns="http://www.w3.org/2000/svg">
<g clip-path="url(#clip0)">
<path d="M9.41502 7.73788L15.7068 1.67978C16.0977 1.30372 16.0977 0.693537 15.7068 0.317474C15.3159 -0.0589091 14.6829 -0.0589091 14.292 0.317474L8.00017 6.37558L1.70803 0.317474C1.31713 -0.0589091 0.68408 -0.0589091 0.293177 0.317474C-0.0977257 0.693537 -0.0977257 1.30372 0.293177 1.67978L6.58531 7.73788L0.293177 13.796C-0.0977257 14.1721 -0.0977257 14.7822 0.293177 15.1583C0.488629 15.3462 0.744783 15.4403 1.0006 15.4403C1.25643 15.4403 1.51258 15.3462 1.70803 15.158L8.00017 9.09986L14.292 15.158C14.4874 15.3462 14.7436 15.4403 14.9994 15.4403C15.2552 15.4403 15.5114 15.3462 15.7068 15.158C16.0977 14.7819 16.0977 14.1717 15.7068 13.7957L9.41502 7.73788Z" fill="#9E9E9E"/>
</g>
<defs>
<clipPath id="clip0">
<rect width="16" height="15.4057" fill="white" transform="translate(0 0.0341797)"/>
</clipPath>
</defs>
</svg>
