<svg width="20" height="20" viewBox="0 0 20 20" fill="none" xmlns="http://www.w3.org/2000/svg">
<g clip-path="url(#clip0)">
<path d="M12.3587 7.64305C12.1962 7.48055 11.932 7.48055 11.7695 7.64305C11.607 7.80555 11.607 8.07055 11.7695 8.23223C12.2412 8.70391 12.502 9.33141 12.502 9.99974C12.502 11.3781 11.3803 12.4997 10.002 12.4997C9.33367 12.4997 8.70617 12.2397 8.23449 11.7672C8.07199 11.6047 7.80781 11.6047 7.64531 11.7672C7.48281 11.9289 7.48281 12.1939 7.64531 12.3564C8.27363 12.9864 9.11113 13.3331 10.002 13.3331C11.8403 13.3331 13.3353 11.8381 13.3353 9.99977C13.3353 9.10888 12.9887 8.27138 12.3587 7.64305Z" fill="#9E9E9E"/>
<path d="M10.5821 6.72391C10.3929 6.69059 10.1996 6.66641 10.0013 6.66641C8.16297 6.66641 6.66797 8.16141 6.66797 9.99973C6.66797 10.198 6.69215 10.3914 6.72629 10.5805C6.76211 10.7822 6.93797 10.9247 7.13547 10.9247C7.15965 10.9247 7.18379 10.923 7.20879 10.918C7.43461 10.878 7.58629 10.6614 7.54629 10.4355C7.52047 10.2939 7.50129 10.1497 7.50129 9.99973C7.50129 8.62141 8.62297 7.49973 10.0013 7.49973C10.1513 7.49973 10.2955 7.51891 10.4371 7.54391C10.6588 7.58891 10.8796 7.43223 10.9196 7.20641C10.9596 6.98059 10.808 6.76391 10.5821 6.72391Z" fill="#9E9E9E"/>
<path d="M19.8994 9.73059C19.8053 9.61891 17.5511 6.98809 14.442 5.37728C14.2403 5.27146 13.9861 5.35146 13.8803 5.55645C13.7745 5.76063 13.8545 6.01227 14.0595 6.11813C16.4545 7.35813 18.3678 9.29313 19.0219 9.99981C18.0286 11.0756 14.1195 14.9998 9.99865 14.9998C8.60033 14.9998 7.19115 14.6623 5.80865 13.9956C5.60366 13.8948 5.35284 13.9823 5.25284 14.1898C5.15202 14.3965 5.23952 14.6456 5.44702 14.7456C6.94283 15.4681 8.47451 15.8331 9.99869 15.8331C15.1329 15.8331 19.7078 10.4964 19.9003 10.2689C20.0319 10.1139 20.0311 9.88641 19.8994 9.73059Z" fill="#9E9E9E"/>
<path d="M12.7342 4.64641C11.7859 4.32723 10.8659 4.16641 10 4.16641C4.86587 4.16641 0.290876 9.50308 0.0983768 9.73058C-0.0233027 9.8739 -0.0333027 10.0823 0.0750565 10.2381C0.132556 10.3206 1.51005 12.2764 3.89755 13.8623C3.96837 13.9098 4.04755 13.9323 4.12755 13.9323C4.26173 13.9323 4.39423 13.8673 4.47423 13.7448C4.60173 13.5539 4.54923 13.2948 4.35755 13.1681C2.60423 12.0023 1.40423 10.5948 0.955055 10.0223C1.91423 8.98058 5.84923 4.99977 10 4.99977C10.7759 4.99977 11.6067 5.14645 12.4684 5.43559C12.6867 5.51391 12.9234 5.39309 12.9959 5.17391C13.0692 4.95559 12.9525 4.71977 12.7342 4.64641Z" fill="#9E9E9E"/>
<path d="M17.3777 2.62212C17.2152 2.45962 16.951 2.45962 16.7885 2.62212L2.62187 16.7888C2.45938 16.9513 2.45938 17.2155 2.62187 17.3779C2.70355 17.4588 2.81019 17.4996 2.91687 17.4996C3.02355 17.4996 3.13019 17.4588 3.21105 17.3779L17.3777 3.2113C17.5402 3.0488 17.5402 2.78462 17.3777 2.62212Z" fill="#9E9E9E"/>
</g>
<defs>
<clipPath id="clip0">
<rect width="20" height="20" fill="white"/>
</clipPath>
</defs>
</svg>
