<svg width="90" height="94" viewBox="0 0 90 94" fill="none" xmlns="http://www.w3.org/2000/svg">
<path d="M68.9181 20.5314C69.5673 20.9634 70.4345 20.9334 71.0545 20.4616C71.6385 20.0171 71.8986 19.2378 71.7095 18.5308C71.5068 17.7727 70.8198 17.2157 70.0364 17.1733C69.2567 17.131 68.5186 17.6054 68.2315 18.3305C67.9185 19.1205 68.2038 20.0632 68.9181 20.5314Z" fill="#E92424"/>
<path d="M76.9167 24.1904C76.3039 23.3827 75.1526 23.2239 74.3444 23.8373C73.5368 24.45 73.3785 25.6016 73.9913 26.4096C81.2486 35.977 85.2076 47.3153 85.4822 59.2788L78.3524 61.5414C77.5975 56.1269 76.3876 51.0773 74.7476 46.5031C74.7474 46.5027 74.7474 46.5024 74.7472 46.502C73.0767 41.838 70.9162 37.5508 68.3251 33.7588C68.3242 33.7576 68.3235 33.7565 68.3227 33.7552C59.6258 21.0274 45.7844 13.289 27.1594 10.7337L29.4307 3.68672C41.4585 3.95514 52.8637 7.86125 62.4946 15.0245C62.8238 15.2692 63.2078 15.3875 63.5888 15.3875C64.1495 15.3875 64.703 15.1313 65.0634 14.647C65.6685 13.8333 65.4995 12.6835 64.6858 12.0782C54.0624 4.17655 41.4103 0 28.0983 0C27.3013 0 26.5952 0.514243 26.3509 1.27285L12.251 45.0226L7.38283 60.1259C7.3797 60.1356 7.37677 60.1455 7.37383 60.1552L1.13205 79.5224C0.414382 81.7522 0.997289 84.1703 2.6533 85.8334C4.32601 87.5131 6.77201 88.1109 9.03718 87.3918L35.8748 78.8744V86.2298C35.8748 90.401 39.2292 93.8853 43.3523 93.9971C43.4248 93.9991 43.4973 94.0002 43.5697 94.0002C45.594 94.0002 47.4969 93.2298 48.948 91.8173C50.4388 90.3663 51.26 88.425 51.26 86.3512V73.9913L60.9041 70.9305V79.257C60.9041 82.8234 63.8229 85.7247 67.4107 85.7247C69.144 85.7247 70.7754 85.0541 72.0056 83.8345C73.237 82.6108 73.9152 80.9851 73.9152 79.2568V66.8011L87.8888 62.367C88.6514 62.1252 89.1695 61.4171 89.1695 60.6172C89.1695 47.3541 84.9326 34.7578 76.9167 24.1904ZM66.0471 36.969C67.8977 39.8543 69.4941 43.0308 70.8086 46.4431C70.0414 46.8574 69.1772 47.0785 68.2899 47.0785C65.3662 47.0785 62.9877 44.7 62.9877 41.7763C62.9877 39.6927 64.2215 37.826 66.0471 36.969ZM16.9787 57.2736C15.5039 58.737 13.5139 59.4545 11.5041 59.31L15.6662 46.3961C16.1404 46.6838 16.5814 47.0278 16.9772 47.4205C18.3049 48.738 19.036 50.4882 19.036 52.3487C19.0358 54.2081 18.3053 55.9572 16.9787 57.2736ZM10.9669 82.9262C10.9932 80.0615 13.3318 77.7385 16.2028 77.7385C17.9133 77.7385 19.4856 78.5819 20.4521 79.9162L10.9669 82.9262ZM40.7409 72.5064C38.0569 75.1702 33.6898 75.17 31.0059 72.5064C29.7101 71.2207 28.9968 69.5124 28.9968 67.6963C28.9968 65.8798 29.7103 64.1717 31.0059 62.8858C32.3479 61.554 34.1106 60.8881 35.8735 60.8881C37.6363 60.8881 39.399 61.554 40.7411 62.8858C42.0367 64.1715 42.7501 65.88 42.7501 67.6963C42.7499 69.5124 42.0365 71.2209 40.7409 72.5064ZM71.5237 63.7083C70.7612 63.9505 70.2433 64.6584 70.2433 65.4581V79.257C70.2433 80 69.9499 80.7005 69.419 81.2284C68.8825 81.7601 68.1693 82.0529 67.4107 82.0529C65.8475 82.0529 64.576 80.7986 64.576 79.257V68.4213C64.576 67.8358 64.2966 67.2856 63.8242 66.9397C63.3518 66.594 62.7426 66.4943 62.1845 66.6715L48.8685 70.898C48.1061 71.14 47.588 71.8479 47.588 72.6478V86.3512C47.588 87.4255 47.1615 88.4322 46.3869 89.1858C45.6004 89.9514 44.5627 90.3592 43.4518 90.3267C41.2985 90.2683 39.5466 88.4305 39.5466 86.2298V77.5204C40.9267 77.0136 42.2206 76.2112 43.3273 75.1129C43.3273 75.1129 43.3273 75.1129 43.3273 75.1127C45.3228 73.1325 46.4218 70.4985 46.4218 67.6961C46.4218 64.8936 45.3228 62.2598 43.3273 60.2795C39.2172 56.2007 32.5297 56.2005 28.4194 60.2794C26.4238 62.2596 25.325 64.8938 25.325 67.6961C25.325 70.4985 26.4238 73.1325 28.4194 75.1127C29.0607 75.7491 29.7648 76.2862 30.5118 76.7241L24.0574 78.7726C22.5296 75.9312 19.5192 74.067 16.2028 74.067C11.291 74.067 7.29489 78.0632 7.29489 82.9751C7.29489 83.3224 7.3149 83.6676 7.35455 84.0098C6.58016 84.084 5.82431 83.8147 5.25517 83.2429C4.56284 82.5475 4.32803 81.5774 4.6271 80.6482L10.3557 62.8733C10.91 62.9598 11.4656 63.0028 12.0185 63.0028C14.8033 63.0028 17.5127 61.9172 19.5651 59.8804C21.5916 57.8693 22.7077 55.1946 22.7077 52.3491C22.7077 49.5025 21.5911 46.8266 19.5635 44.8146C18.7564 44.0136 17.8245 43.3461 16.8127 42.8386L26.0149 14.2859C42.9365 16.482 55.6719 23.0846 63.9263 33.9355C61.1507 35.4912 59.3157 38.4731 59.3157 41.7769C59.3157 46.7251 63.3415 50.7509 68.2897 50.7509C69.593 50.7509 70.8668 50.4687 72.03 49.9354C73.2717 53.8602 74.2003 58.1276 74.7999 62.6683L71.5237 63.7083Z" fill="#E92424"/>
<path d="M47.5281 31.0878C47.5281 28.1354 46.3701 25.3606 44.2678 23.274C39.9372 18.9768 32.8907 18.9768 28.5601 23.274C26.4577 25.3604 25.2998 28.1352 25.2998 31.0878C25.2998 34.0402 26.4577 36.815 28.5601 38.9016C30.7254 41.0501 33.5696 42.1245 36.4138 42.1245C39.2581 42.1245 42.1023 41.0501 44.2676 38.9016C46.3701 36.815 47.5281 34.0402 47.5281 31.0878ZM41.6813 36.2949C38.7769 39.1771 34.051 39.1771 31.1465 36.2949C29.7439 34.9032 28.9717 33.0541 28.9717 31.0878C28.9717 29.1215 29.7439 27.2724 31.1465 25.8807C32.5988 24.4395 34.5063 23.7191 36.4138 23.7191C38.3216 23.7191 40.2289 24.4397 41.6811 25.8807C43.0838 27.2724 43.856 29.1215 43.856 31.0878C43.8562 33.0541 43.084 34.9032 41.6813 36.2949Z" fill="#E92424"/>
<path d="M54.7035 46.8437C50.9692 42.9871 44.7739 42.9067 40.8929 46.6641C40.5431 47.003 40.3421 47.4668 40.3342 47.9535C40.3265 48.4402 40.5123 48.9104 40.851 49.2602L51.8417 60.6106C52.2017 60.9826 52.6809 61.1695 53.1608 61.1695C53.6207 61.1695 54.0813 60.9977 54.4377 60.6527C58.3185 56.8951 58.4378 50.7004 54.7035 46.8437ZM53.009 56.538L44.9595 48.225C47.282 47.0539 50.1802 47.4508 52.0655 49.398C53.9512 51.3452 54.2543 54.2546 53.009 56.538Z" fill="#E92424"/>
</svg>
